AnekKannada-ExpandedExtraBold.ufo
<glyph name="six" format="2">
  <advance width="1526"/>
  <unicode hex="0036"/>
  <outline>
    <contour>
      <point x="802" y="-45" type="curve" smooth="yes"/>
      <point x="1222" y="-45"/>
      <point x="1446" y="114"/>
      <point x="1446" y="404" type="curve"/>
      <point x="1446" y="423" type="line" smooth="yes"/>
      <point x="1446" y="677"/>
      <point x="1270" y="822"/>
      <point x="956" y="822" type="curve" smooth="yes"/>
      <point x="693" y="822"/>
      <point x="549" y="733"/>
      <point x="500" y="590" type="curve"/>
      <point x="440" y="590" type="line"/>
      <point x="493" y="441" type="line"/>
      <point x="558" y="503"/>
      <point x="677" y="546"/>
      <point x="813" y="546" type="curve" smooth="yes"/>
      <point x="1011" y="546"/>
      <point x="1044" y="479"/>
      <point x="1044" y="416" type="curve" smooth="yes"/>
      <point x="1044" y="409" type="line"/>
      <point x="1044" y="331"/>
      <point x="973" y="278"/>
      <point x="813" y="278" type="curve" smooth="yes"/>
      <point x="592" y="278"/>
      <point x="490" y="379"/>
      <point x="490" y="599" type="curve"/>
      <point x="490" y="613" type="line"/>
      <point x="490" y="880"/>
      <point x="627" y="992"/>
      <point x="936" y="992" type="curve" smooth="yes"/>
      <point x="1110" y="992"/>
      <point x="1256" y="956"/>
      <point x="1386" y="906" type="curve"/>
      <point x="1341" y="1229" type="line"/>
      <point x="1214" y="1277"/>
      <point x="1046" y="1311"/>
      <point x="845" y="1311" type="curve" smooth="yes"/>
      <point x="356" y="1311"/>
      <point x="84" y="1054"/>
      <point x="84" y="612" type="curve"/>
      <point x="84" y="596" type="line"/>
      <point x="84" y="187"/>
      <point x="346" y="-45"/>
    </contour>
  </outline>
</glyph>
<glyph name="seven" format="2">
  <advance width="1314"/>
  <unicode hex="0037"/>
  <outline>
    <contour>
      <point x="668" y="0" type="line"/>
      <point x="1246" y="953" type="line"/>
      <point x="1246" y="1278" type="line"/>
      <point x="60" y="1278" type="line"/>
      <point x="60" y="956" type="line"/>
      <point x="808" y="956" type="line"/>
      <point x="216" y="0" type="line"/>
    </contour>
  </outline>
</glyph>
<glyph name="I" format="2">
  <advance width="674"/>
  <unicode hex="0049"/>
  <anchor x="337" y="0" name="bottom"/>
  <anchor x="576" y="10" name="ogonek"/>
  <anchor x="337" y="1278" name="top"/>
  <anchor x="20" y="1278" name="topleft"/>
  <outline>
    <contour>
      <point x="540" y="1278" type="line"/>
      <point x="134" y="1278" type="line"/>
      <point x="134" y="0" type="line"/>
      <point x="540" y="0" type="line"/>
    </contour>
  </outline>
</glyph>
<glyph name="L" format="2">
  <advance width="1352"/>
  <unicode hex="004C"/>
  <anchor x="714" y="0" name="bottom"/>
  <anchor x="676" y="639" name="center"/>
  <anchor x="337" y="1278" name="top"/>
  <anchor x="835" y="1278" name="topright"/>
  <outline>
    <contour>
      <point x="540" y="1278" type="line"/>
      <point x="134" y="1278" type="line"/>
      <point x="134" y="0" type="line"/>
      <point x="540" y="0" type="line"/>
    </contour>
    <contour>
      <point x="340" y="0" type="line"/>
      <point x="1288" y="0" type="line"/>
      <point x="1288" y="322" type="line"/>
      <point x="340" y="322" type="line"/>
    </contour>
  </outline>
</glyph>
<glyph name="backslash" format="2">
  <advance width="1277"/>
  <unicode hex="005C"/>
  <outline>
    <contour>
      <point x="951" y="-265" type="line"/>
      <point x="-48" y="1349" type="line"/>
      <point x="324" y="1349" type="line"/>
      <point x="1325" y="-265" type="line"/>
    </contour>
  </outline>
</glyph>
<glyph name="w" format="2">
  <advance width="1954"/>
  <unicode hex="0077"/>
  <anchor x="977" y="0" name="bottom"/>
  <anchor x="977" y="963" name="top"/>
  <outline>
    <contour>
      <point x="827" y="0" type="line"/>
      <point x="945" y="545" type="line"/>
      <point x="968" y="655" type="line"/>
      <point x="986" y="655" type="line"/>
      <point x="1009" y="545" type="line"/>
      <point x="1128" y="0" type="line"/>
      <point x="1682" y="0" type="line"/>
      <point x="1942" y="963" type="line"/>
      <point x="1529" y="963" type="line"/>
      <point x="1390" y="279" type="line"/>
      <point x="1370" y="279" type="line"/>
      <point x="1215" y="936" type="line"/>
      <point x="736" y="936" type="line"/>
      <point x="589" y="279" type="line"/>
      <point x="566" y="279" type="line"/>
      <point x="425" y="963" type="line"/>
      <point x="12" y="963" type="line"/>
      <point x="272" y="0" type="line"/>
    </contour>
  </outline>
</glyph>
<glyph name="z" format="2">
  <advance width="1246"/>
  <unicode hex="007A"/>
  <anchor x="623" y="0" name="bottom"/>
  <anchor x="623" y="482" name="center"/>
  <anchor x="623" y="963" name="top"/>
  <outline>
    <contour>
      <point x="619" y="310" type="line"/>
      <point x="1152" y="686" type="line"/>
      <point x="1152" y="961" type="line"/>
      <point x="90" y="961" type="line"/>
      <point x="90" y="651" type="line"/>
      <point x="617" y="651" type="line"/>
      <point x="86" y="275" type="line"/>
      <point x="86" y="0" type="line"/>
      <point x="1160" y="0" type="line"/>
      <point x="1160" y="310" type="line"/>
    </contour>
  </outline>
</glyph>
<glyph name="divide" format="2">
  <advance width="1322"/>
  <unicode hex="00F7"/>
  <outline>
    <component base="period" xScale="0.9" yScale="0.9" xOffset="387" yOffset="42"/>
    <component base="period" xScale="0.9" yScale="0.9" xOffset="387" yOffset="846"/>
    <contour>
      <point x="1207" y="438" type="line"/>
      <point x="1207" y="740" type="line"/>
      <point x="115" y="740" type="line"/>
      <point x="115" y="438" type="line"/>
    </contour>
  </outline>
</glyph>
<glyph name="oslash" format="2">
  <advance width="1425"/>
  <unicode hex="00F8"/>
  <anchor x="713" y="0" name="bottom"/>
  <anchor x="713" y="482" name="center"/>
  <anchor x="1283" y="10" name="ogonek"/>
  <anchor x="714" y="963" name="top"/>
  <anchor x="1405" y="963" name="topright"/>
  <outline>
    <contour>
      <point x="711" y="-33" type="curve" smooth="yes"/>
      <point x="1129" y="-33"/>
      <point x="1357" y="148"/>
      <point x="1357" y="472" type="curve"/>
      <point x="1357" y="488" type="line"/>
      <point x="1357" y="807"/>
      <point x="1115" y="998"/>
      <point x="711" y="998" type="curve" smooth="yes"/>
      <point x="297" y="998"/>
      <point x="68" y="816"/>
      <point x="68" y="495" type="curve"/>
      <point x="68" y="479" type="line"/>
      <point x="68" y="157"/>
      <point x="310" y="-33"/>
    </contour>
    <contour>
      <point x="353" y="-75" type="line"/>
      <point x="498" y="91" type="line"/>
      <point x="573" y="177" type="line"/>
      <point x="1016" y="682" type="line"/>
      <point x="1094" y="771" type="line"/>
      <point x="1327" y="1038" type="line"/>
      <point x="1072" y="1038" type="line"/>
      <point x="950" y="899" type="line"/>
      <point x="858" y="793" type="line"/>
      <point x="427" y="300" type="line"/>
      <point x="330" y="189" type="line"/>
      <point x="99" y="-75" type="line"/>
    </contour>
    <contour>
      <point x="711" y="253" type="curve" smooth="yes"/>
      <point x="549" y="253"/>
      <point x="451" y="331"/>
      <point x="451" y="472" type="curve" smooth="yes"/>
      <point x="451" y="495" type="line" smooth="yes"/>
      <point x="451" y="636"/>
      <point x="548" y="715"/>
      <point x="711" y="715" type="curve" smooth="yes"/>
      <point x="876" y="715"/>
      <point x="974" y="635"/>
      <point x="974" y="495" type="curve" smooth="yes"/>
      <point x="974" y="472" type="line" smooth="yes"/>
      <point x="974" y="330"/>
      <point x="875" y="253"/>
    </contour>
  </outline>
</glyph>
<glyph name="vowelAi.kn" format="2">
  <advance width="2104"/>
  <unicode hex="0C90"/>
  <outline>
    <contour>
      <point x="1473" y="1213" type="curve" smooth="yes"/>
      <point x="1213" y="1213"/>
      <point x="1076" y="1107"/>
      <point x="1051" y="927" type="curve"/>
      <point x="1039" y="927" type="line"/>
      <point x="1013" y="1107"/>
      <point x="875" y="1213"/>
      <point x="610" y="1213" type="curve" smooth="yes"/>
      <point x="290" y="1213"/>
      <point x="117" y="1061"/>
      <point x="117" y="777" type="curve" smooth="yes"/>
      <point x="117" y="774" type="line"/>
      <point x="503" y="774" type="line"/>
      <point x="503" y="775" type="line"/>
      <point x="503" y="842"/>
      <point x="558" y="878"/>
      <point x="662" y="878" type="curve" smooth="yes"/>
      <point x="769" y="878"/>
      <point x="826" y="826"/>
      <point x="837" y="725" type="curve" smooth="yes"/>
      <point x="840" y="697" type="line"/>
      <point x="1250" y="697" type="line"/>
      <point x="1252" y="719" type="line" smooth="yes"/>
      <point x="1261" y="822"/>
      <point x="1318" y="878"/>
      <point x="1429" y="878" type="curve" smooth="yes"/>
      <point x="1559" y="878"/>
      <point x="1624" y="783"/>
      <point x="1624" y="585" type="curve" smooth="yes"/>
      <point x="1624" y="576" type="line" smooth="yes"/>
      <point x="1624" y="385"/>
      <point x="1556" y="298"/>
      <point x="1433" y="298" type="curve" smooth="yes"/>
      <point x="1321" y="298"/>
      <point x="1256" y="361"/>
      <point x="1251" y="483" type="curve" smooth="yes"/>
      <point x="1250" y="506" type="line"/>
      <point x="841" y="506" type="line"/>
      <point x="838" y="462" type="line" smooth="yes"/>
      <point x="830" y="347"/>
      <point x="754" y="288"/>
      <point x="617" y="288" type="curve" smooth="yes"/>
      <point x="510" y="288"/>
      <point x="461" y="313"/>
      <point x="461" y="368" type="curve"/>
      <point x="461" y="370" type="line"/>
      <point x="461" y="418"/>
      <point x="503" y="443"/>
      <point x="583" y="443" type="curve" smooth="yes"/>
      <point x="634" y="443"/>
      <point x="684" y="434"/>
      <point x="720" y="418" type="curve"/>
      <point x="701" y="714" type="line"/>
      <point x="643" y="736"/>
      <point x="584" y="745"/>
      <point x="504" y="745" type="curve" smooth="yes"/>
      <point x="232" y="745"/>
      <point x="80" y="605"/>
      <point x="80" y="370" type="curve" smooth="yes"/>
      <point x="80" y="364" type="line" smooth="yes"/>
      <point x="80" y="100"/>
      <point x="255" y="-37"/>
      <point x="588" y="-37" type="curve" smooth="yes"/>
      <point x="869" y="-37"/>
      <point x="1017" y="74"/>
      <point x="1040" y="273" type="curve"/>
      <point x="1051" y="273" type="line"/>
      <point x="1073" y="74"/>
      <point x="1217" y="-37"/>
      <point x="1487" y="-37" type="curve" smooth="yes"/>
      <point x="1831" y="-37"/>
      <point x="2014" y="171"/>
      <point x="2014" y="574" type="curve" smooth="yes"/>
      <point x="2014" y="587" type="line" smooth="yes"/>
      <point x="2014" y="1001"/>
      <point x="1825" y="1213"/>
    </contour>
  </outline>
  <guideline angle="0" x="0" y="2529"/>
  <guideline angle="90" x="1025" y="0"/>
  <guideline angle="90" x="1063" y="0"/>
</glyph>
<glyph name="vowelAu.kn" format="2">
  <advance width="2200"/>
  <unicode hex="0C94"/>
  <outline>
    <contour>
      <point x="1586" y="442" type="curve"/>
      <point x="1586" y="440" type="line"/>
      <point x="1586" y="347"/>
      <point x="1532" y="298"/>
      <point x="1423" y="298" type="curve" smooth="yes"/>
      <point x="1313" y="298"/>
      <point x="1255" y="353"/>
      <point x="1248" y="460" type="curve" smooth="yes"/>
      <point x="1247" y="476" type="line"/>
      <point x="1025" y="476" type="line"/>
      <point x="1046" y="277" type="line" smooth="yes"/>
      <point x="1066" y="75"/>
      <point x="1210" y="-37"/>
      <point x="1482" y="-37" type="curve" smooth="yes"/>
      <point x="1805" y="-37"/>
      <point x="1974" y="107"/>
      <point x="1974" y="369" type="curve" smooth="yes"/>
      <point x="1974" y="373" type="line" smooth="yes"/>
      <point x="1974" y="415"/>
      <point x="1969" y="456"/>
      <point x="1955" y="497" type="curve"/>
      <point x="1578" y="497" type="line"/>
      <point x="1583" y="480"/>
      <point x="1586" y="460"/>
    </contour>
    <contour>
      <point x="605" y="1211" type="curve" smooth="yes"/>
      <point x="280" y="1211"/>
      <point x="101" y="1082"/>
      <point x="101" y="848" type="curve" smooth="yes"/>
      <point x="101" y="841" type="line" smooth="yes"/>
      <point x="101" y="776"/>
      <point x="118" y="724"/>
      <point x="138" y="693" type="curve"/>
      <point x="472" y="693" type="line"/>
      <point x="454" y="721"/>
      <point x="444" y="755"/>
      <point x="444" y="788" type="curve" smooth="yes"/>
      <point x="444" y="791" type="line" smooth="yes"/>
      <point x="444" y="871"/>
      <point x="498" y="911"/>
      <point x="607" y="911" type="curve" smooth="yes"/>
      <point x="701" y="911"/>
      <point x="746" y="882"/>
      <point x="746" y="825" type="curve"/>
      <point x="746" y="823" type="line"/>
      <point x="746" y="773"/>
      <point x="709" y="750"/>
      <point x="579" y="726" type="curve" smooth="yes"/>
      <point x="482" y="708" type="line" smooth="yes"/>
      <point x="194" y="655"/>
      <point x="76" y="553"/>
      <point x="76" y="343" type="curve" smooth="yes"/>
      <point x="76" y="335" type="line" smooth="yes"/>
      <point x="76" y="95"/>
      <point x="255" y="-37"/>
      <point x="578" y="-37" type="curve" smooth="yes"/>
      <point x="862" y="-37"/>
      <point x="1013" y="74"/>
      <point x="1036" y="273" type="curve"/>
      <point x="1057" y="273" type="line"/>
      <point x="1057" y="476" type="line"/>
      <point x="835" y="476" type="line"/>
      <point x="834" y="462" type="line" smooth="yes"/>
      <point x="825" y="340"/>
      <point x="742" y="276"/>
      <point x="589" y="276" type="curve" smooth="yes"/>
      <point x="487" y="276"/>
      <point x="440" y="303"/>
      <point x="440" y="351" type="curve" smooth="yes"/>
      <point x="440" y="355" type="line" smooth="yes"/>
      <point x="440" y="404"/>
      <point x="479" y="427"/>
      <point x="613" y="452" type="curve" smooth="yes"/>
      <point x="710" y="470" type="line" smooth="yes"/>
      <point x="974" y="519"/>
      <point x="1099" y="618"/>
      <point x="1099" y="817" type="curve" smooth="yes"/>
      <point x="1099" y="823" type="line" smooth="yes"/>
      <point x="1099" y="1074"/>
      <point x="925" y="1211"/>
    </contour>
    <contour>
      <point x="846" y="948" type="line" smooth="yes"/>
      <point x="1019" y="948"/>
      <point x="1123" y="1029"/>
      <point x="1123" y="1165" type="curve"/>
      <point x="1123" y="1167" type="line"/>
      <point x="1123" y="1260"/>
      <point x="1068" y="1321"/>
      <point x="964" y="1343" type="curve"/>
      <point x="964" y="1382.5" type="line"/>
      <point x="646" y="1382.5" type="line"/>
      <point x="646" y="1352" type="line"/>
      <point x="712" y="1352"/>
      <point x="743" y="1329"/>
      <point x="743" y="1281" type="curve"/>
      <point x="743" y="1279" type="line"/>
      <point x="743" y="1231"/>
      <point x="712" y="1210"/>
      <point x="646" y="1210" type="curve" smooth="yes"/>
      <point x="614" y="1210" type="line"/>
      <point x="614" y="948" type="line"/>
    </contour>
    <contour>
      <point x="2160" y="1047.21" type="line"/>
      <point x="2160" y="1051" type="line" smooth="yes"/>
      <point x="2160" y="1424"/>
      <point x="1908" y="1635"/>
      <point x="1407" y="1635" type="curve" smooth="yes"/>
      <point x="199" y="1635" type="line"/>
      <point x="199" y="1352" type="line"/>
      <point x="1397" y="1352" type="line" smooth="yes"/>
      <point x="1657" y="1352"/>
      <point x="1796" y="1252"/>
      <point x="1796" y="1066" type="curve" smooth="yes"/>
      <point x="1796" y="1027.32" type="line"/>
    </contour>
    <contour>
      <point x="1796" y="1028.69" type="line"/>
      <point x="1796" y="1001" type="line" smooth="yes"/>
      <point x="1796" y="890"/>
      <point x="1748" y="832"/>
      <point x="1656" y="832" type="curve" smooth="yes"/>
      <point x="1583" y="832"/>
      <point x="1545" y="860"/>
      <point x="1545" y="909" type="curve"/>
      <point x="1545" y="911" type="line"/>
      <point x="1545" y="963"/>
      <point x="1582" y="992"/>
      <point x="1656" y="992" type="curve" smooth="yes"/>
      <point x="1728" y="992"/>
      <point x="1790" y="965"/>
      <point x="1838" y="914" type="curve"/>
      <point x="1848" y="1064" type="line"/>
      <point x="1785" y="1064" type="line"/>
      <point x="1757" y="1178"/>
      <point x="1659" y="1239"/>
      <point x="1518" y="1239" type="curve" smooth="yes"/>
      <point x="1311" y="1239"/>
      <point x="1199" y="1117"/>
      <point x="1199" y="916" type="curve"/>
      <point x="1199" y="914" type="line"/>
      <point x="1199" y="677"/>
      <point x="1358" y="550"/>
      <point x="1655" y="550" type="curve" smooth="yes"/>
      <point x="1988" y="550"/>
      <point x="2160" y="723"/>
      <point x="2160" y="1043" type="curve" smooth="yes"/>
      <point x="2160" y="1048.06" type="line"/>
    </contour>
  </outline>
  <guideline angle="90" x="350" y="0"/>
  <guideline angle="90" x="338" y="0"/>
  <guideline angle="0" x="0" y="2043"/>
  <guideline angle="0" x="0" y="1525"/>
</glyph>
<glyph name="Ka.kn" format="2">
  <advance width="1569"/>
  <unicode hex="0C95"/>
  <outline>
    <contour>
      <point x="82" y="766" type="line"/>
      <point x="82" y="482" type="line"/>
      <point x="391" y="496" type="line"/>
      <point x="387" y="564" type="line"/>
      <point x="1176" y="564" type="line"/>
      <point x="1175" y="496" type="line"/>
      <point x="1484" y="482" type="line"/>
      <point x="1484" y="766" type="line"/>
    </contour>
    <contour>
      <point x="596" y="1015" type="line"/>
      <point x="596" y="579" type="line"/>
      <point x="970" y="579" type="line"/>
      <point x="970" y="1015" type="line"/>
    </contour>
    <contour>
      <point x="82" y="1174" type="line"/>
      <point x="82" y="890" type="line"/>
      <point x="1080" y="890" type="line"/>
      <point x="1080" y="1174" type="line"/>
    </contour>
    <contour>
      <point x="784" y="254" type="curve" smooth="yes"/>
      <point x="606" y="254"/>
      <point x="519" y="298"/>
      <point x="519" y="387" type="curve" smooth="yes"/>
      <point x="519" y="390" type="line" smooth="yes"/>
      <point x="519" y="479"/>
      <point x="606" y="523"/>
      <point x="784" y="523" type="curve" smooth="yes"/>
      <point x="962" y="523"/>
      <point x="1049" y="479"/>
      <point x="1049" y="390" type="curve" smooth="yes"/>
      <point x="1049" y="387" type="line" smooth="yes"/>
      <point x="1049" y="298"/>
      <point x="962" y="254"/>
    </contour>
    <contour>
      <point x="353" y="584" type="line"/>
      <point x="353" y="484" type="line"/>
      <point x="220" y="465"/>
      <point x="144" y="400"/>
      <point x="144" y="269" type="curve" smooth="yes"/>
      <point x="144" y="260" type="line" smooth="yes"/>
      <point x="144" y="54"/>
      <point x="363" y="-56"/>
      <point x="784" y="-56" type="curve" smooth="yes"/>
      <point x="1205" y="-56"/>
      <point x="1424" y="54"/>
      <point x="1424" y="260" type="curve" smooth="yes"/>
      <point x="1424" y="269" type="line" smooth="yes"/>
      <point x="1424" y="400"/>
      <point x="1348" y="465"/>
      <point x="1215" y="484" type="curve"/>
      <point x="1215" y="584" type="line"/>
    </contour>
    <contour>
      <point x="1124" y="1546" type="line"/>
      <point x="1159" y="1473"/>
      <point x="1188" y="1380"/>
      <point x="1188" y="1305" type="curve" smooth="yes"/>
      <point x="1188" y="1210"/>
      <point x="1154" y="1174"/>
      <point x="1062" y="1174" type="curve" smooth="yes"/>
      <point x="1032" y="1174" type="line"/>
      <point x="1032" y="889" type="line"/>
      <point x="1204" y="889" type="line" smooth="yes"/>
      <point x="1425" y="889"/>
      <point x="1535" y="1005"/>
      <point x="1535" y="1233" type="curve" smooth="yes"/>
      <point x="1535" y="1338"/>
      <point x="1505" y="1446"/>
      <point x="1439" y="1546" type="curve"/>
    </contour>
  </outline>
  <guideline angle="0" x="0" y="1536"/>
</glyph>
<glyph name="Ga.kn" format="2">
  <advance width="1664"/>
  <unicode hex="0C97"/>
  <outline>
    <contour>
      <point x="402" y="911" type="line"/>
      <point x="402" y="879.403" type="line"/>
      <point x="213.901" y="838.118"/>
      <point x="122" y="705.926"/>
      <point x="122" y="477" type="curve" smooth="yes"/>
      <point x="122" y="0" type="line"/>
      <point x="515" y="0" type="line"/>
      <point x="515" y="528" type="line" smooth="yes"/>
      <point x="515" y="772"/>
      <point x="619.016" y="889"/>
      <point x="832" y="889" type="curve" smooth="yes"/>
      <point x="1044.98" y="889"/>
      <point x="1149" y="772"/>
      <point x="1149" y="528" type="curve" smooth="yes"/>
      <point x="1149" y="0" type="line"/>
      <point x="1542" y="0" type="line"/>
      <point x="1542" y="477" type="line" smooth="yes"/>
      <point x="1542" y="705.926"/>
      <point x="1450.1" y="838.118"/>
      <point x="1262" y="879.403" type="curve"/>
      <point x="1262" y="911" type="line"/>
    </contour>
    <contour>
      <point x="97" y="1174" type="line"/>
      <point x="97" y="889" type="line"/>
      <point x="1175" y="889" type="line"/>
      <point x="1175" y="1174" type="line"/>
    </contour>
    <contour>
      <point x="1181" y="1546" type="line"/>
      <point x="1216" y="1473"/>
      <point x="1245" y="1380"/>
      <point x="1245" y="1305" type="curve" smooth="yes"/>
      <point x="1245" y="1210"/>
      <point x="1211" y="1174"/>
      <point x="1119" y="1174" type="curve" smooth="yes"/>
      <point x="1089" y="1174" type="line"/>
      <point x="1089" y="889" type="line"/>
      <point x="1261" y="889" type="line" smooth="yes"/>
      <point x="1482" y="889"/>
      <point x="1592" y="1005"/>
      <point x="1592" y="1233" type="curve" smooth="yes"/>
      <point x="1592" y="1338"/>
      <point x="1562" y="1446"/>
      <point x="1496" y="1546" type="curve"/>
    </contour>
  </outline>
  <guideline angle="0" x="0" y="1536"/>
  <guideline angle="90" x="832" y="0"/>
  <guideline angle="90" x="486" y="0"/>
</glyph>
<glyph name="Gha.kn" format="2">
  <advance width="2098"/>
  <unicode hex="0C98"/>
  <outline>
    <contour>
      <point x="1253" y="456" type="curve" smooth="yes"/>
      <point x="1248" y="506" type="line"/>
      <point x="841" y="506" type="line"/>
      <point x="838" y="462" type="line" smooth="yes"/>
      <point x="830" y="347"/>
      <point x="754" y="288"/>
      <point x="617" y="288" type="curve" smooth="yes"/>
      <point x="510" y="288"/>
      <point x="461" y="317"/>
      <point x="461" y="377" type="curve"/>
      <point x="461" y="379" type="line"/>
      <point x="461" y="432"/>
      <point x="503" y="461"/>
      <point x="583" y="461" type="curve" smooth="yes"/>
      <point x="634" y="461"/>
      <point x="684" y="452"/>
      <point x="720" y="436" type="curve"/>
      <point x="701" y="732" type="line"/>
      <point x="643" y="754"/>
      <point x="584" y="763"/>
      <point x="504" y="763" type="curve" smooth="yes"/>
      <point x="232" y="763"/>
      <point x="80" y="619"/>
      <point x="80" y="379" type="curve" smooth="yes"/>
      <point x="80" y="373" type="line" smooth="yes"/>
      <point x="80" y="104"/>
      <point x="255" y="-37"/>
      <point x="588" y="-37" type="curve" smooth="yes"/>
      <point x="869" y="-37"/>
      <point x="1017" y="74"/>
      <point x="1040" y="273" type="curve"/>
      <point x="1050" y="273" type="line"/>
      <point x="1071" y="74"/>
      <point x="1215" y="-37"/>
      <point x="1483" y="-37" type="curve" smooth="yes"/>
      <point x="1813" y="-37"/>
      <point x="1980" y="79"/>
      <point x="1980" y="303" type="curve" smooth="yes"/>
      <point x="1980" y="310" type="line" smooth="yes"/>
      <point x="1980" y="454"/>
      <point x="1895" y="538"/>
      <point x="1722" y="558" type="curve"/>
      <point x="1722" y="589" type="line"/>
      <point x="1363" y="589" type="line"/>
      <point x="1363" y="475" type="line"/>
      <point x="1425" y="474" type="line" smooth="yes"/>
      <point x="1551" y="472"/>
      <point x="1595" y="440"/>
      <point x="1595" y="383" type="curve" smooth="yes"/>
      <point x="1595" y="379" type="line" smooth="yes"/>
      <point x="1595" y="315"/>
      <point x="1545" y="287"/>
      <point x="1444" y="287" type="curve" smooth="yes"/>
      <point x="1328" y="287"/>
      <point x="1265" y="339"/>
    </contour>
    <contour>
      <point x="1043" y="589" type="curve" smooth="yes"/>
      <point x="1183" y="589"/>
      <point x="1255" y="648"/>
      <point x="1255" y="760" type="curve" smooth="yes"/>
      <point x="1255" y="767" type="line" smooth="yes"/>
      <point x="1255" y="880"/>
      <point x="1183" y="939"/>
      <point x="1043" y="939" type="curve" smooth="yes"/>
      <point x="905" y="939"/>
      <point x="833" y="880"/>
      <point x="833" y="767" type="curve" smooth="yes"/>
      <point x="833" y="760" type="line" smooth="yes"/>
      <point x="833" y="648"/>
      <point x="905" y="589"/>
    </contour>
    <contour>
      <point x="1722" y="568" type="line" smooth="yes"/>
      <point x="1964" y="570"/>
      <point x="2065" y="637"/>
      <point x="2065" y="782" type="curve" smooth="yes"/>
      <point x="2065" y="822"/>
      <point x="2052" y="862"/>
      <point x="2030" y="894" type="curve"/>
      <point x="1660" y="894" type="line"/>
      <point x="1671" y="869"/>
      <point x="1675" y="847"/>
      <point x="1675" y="824" type="curve" smooth="yes"/>
      <point x="1675" y="762"/>
      <point x="1639" y="733"/>
      <point x="1511" y="730" type="curve" smooth="yes"/>
      <point x="1363" y="726" type="line"/>
      <point x="1363" y="565" type="line"/>
    </contour>
    <contour>
      <point x="1536" y="889" type="line"/>
      <point x="1536" y="1174" type="line"/>
      <point x="145" y="1174" type="line"/>
      <point x="145" y="889" type="line"/>
    </contour>
    <contour>
      <point x="1040" y="-462" type="curve" smooth="yes"/>
      <point x="1176" y="-462"/>
      <point x="1247" y="-397"/>
      <point x="1247" y="-272" type="curve" smooth="yes"/>
      <point x="1247" y="-264" type="line" smooth="yes"/>
      <point x="1247" y="-153"/>
      <point x="1190" y="-65"/>
      <point x="1040" y="46" type="curve"/>
      <point x="890" y="-65"/>
      <point x="833" y="-153"/>
      <point x="833" y="-264" type="curve" smooth="yes"/>
      <point x="833" y="-272" type="line" smooth="yes"/>
      <point x="833" y="-397"/>
      <point x="904" y="-462"/>
    </contour>
    <contour>
      <point x="1587" y="1546" type="line"/>
      <point x="1622" y="1473"/>
      <point x="1651" y="1380"/>
      <point x="1651" y="1305" type="curve" smooth="yes"/>
      <point x="1651" y="1210"/>
      <point x="1617" y="1174"/>
      <point x="1525" y="1174" type="curve" smooth="yes"/>
      <point x="1495" y="1174" type="line"/>
      <point x="1495" y="889" type="line"/>
      <point x="1667" y="889" type="line" smooth="yes"/>
      <point x="1888" y="889"/>
      <point x="1998" y="1005"/>
      <point x="1998" y="1233" type="curve" smooth="yes"/>
      <point x="1998" y="1338"/>
      <point x="1968" y="1446"/>
      <point x="1902" y="1546" type="curve"/>
    </contour>
  </outline>
  <guideline angle="90" x="-303" y="0"/>
  <guideline angle="90" x="1018" y="0"/>
  <guideline angle="0" x="0" y="1536"/>
  <guideline angle="90" x="80" y="0"/>
</glyph>
<glyph name="Ttha.kn" format="2">
  <advance width="1716"/>
  <unicode hex="0CA0"/>
  <outline>
    <contour>
      <point x="384" y="908" type="line"/>
      <point x="384" y="880" type="line"/>
      <point x="198" y="835"/>
      <point x="93" y="699"/>
      <point x="93" y="496" type="curve" smooth="yes"/>
      <point x="93" y="486" type="line" smooth="yes"/>
      <point x="93" y="138"/>
      <point x="364" y="-51"/>
      <point x="858" y="-51" type="curve" smooth="yes"/>
      <point x="1352" y="-51"/>
      <point x="1623" y="138"/>
      <point x="1623" y="486" type="curve" smooth="yes"/>
      <point x="1623" y="496" type="line" smooth="yes"/>
      <point x="1623" y="699"/>
      <point x="1518" y="835"/>
      <point x="1332" y="880" type="curve"/>
      <point x="1332" y="908" type="line"/>
    </contour>
    <contour>
      <point x="93" y="1174" type="line"/>
      <point x="93" y="889" type="line"/>
      <point x="1186" y="889" type="line"/>
      <point x="1186" y="1174" type="line"/>
    </contour>
    <contour>
      <point x="857" y="769" type="curve" smooth="yes"/>
      <point x="719" y="769"/>
      <point x="647" y="710"/>
      <point x="647" y="597" type="curve" smooth="yes"/>
      <point x="647" y="590" type="line" smooth="yes"/>
      <point x="647" y="478"/>
      <point x="719" y="419"/>
      <point x="857" y="419" type="curve" smooth="yes"/>
      <point x="997" y="419"/>
      <point x="1069" y="478"/>
      <point x="1069" y="590" type="curve" smooth="yes"/>
      <point x="1069" y="597" type="line" smooth="yes"/>
      <point x="1069" y="710"/>
      <point x="997" y="769"/>
    </contour>
    <contour>
      <point x="1233" y="587" type="curve" smooth="yes"/>
      <point x="1233" y="581" type="line" smooth="yes"/>
      <point x="1233" y="386"/>
      <point x="1102" y="279"/>
      <point x="858" y="279" type="curve" smooth="yes"/>
      <point x="614" y="279"/>
      <point x="483" y="386"/>
      <point x="483" y="581" type="curve" smooth="yes"/>
      <point x="483" y="587" type="line" smooth="yes"/>
      <point x="483" y="782"/>
      <point x="614" y="889"/>
      <point x="858" y="889" type="curve" smooth="yes"/>
      <point x="1102" y="889"/>
      <point x="1233" y="782"/>
    </contour>
    <contour>
      <point x="1262" y="1546" type="line"/>
      <point x="1297" y="1473"/>
      <point x="1326" y="1380"/>
      <point x="1326" y="1305" type="curve" smooth="yes"/>
      <point x="1326" y="1210"/>
      <point x="1292" y="1174"/>
      <point x="1200" y="1174" type="curve" smooth="yes"/>
      <point x="1170" y="1174" type="line"/>
      <point x="1170" y="889" type="line"/>
      <point x="1342" y="889" type="line" smooth="yes"/>
      <point x="1563" y="889"/>
      <point x="1673" y="1005"/>
      <point x="1673" y="1233" type="curve" smooth="yes"/>
      <point x="1673" y="1338"/>
      <point x="1643" y="1446"/>
      <point x="1577" y="1546" type="curve"/>
    </contour>
  </outline>
  <guideline angle="90" x="995" y="0"/>
  <guideline angle="90" x="534" y="0"/>
  <guideline angle="90" x="1623" y="0"/>
  <guideline angle="0" x="0" y="1536"/>
  <guideline angle="90" x="1304" y="0"/>
</glyph>
<glyph name="Ya.kn" format="2">
  <advance width="3389"/>
  <unicode hex="0CAF"/>
  <outline>
    <component base="matraU.kn" xOffset="2517"/>
    <contour>
      <point x="1662" y="911" type="line"/>
      <point x="1662" y="889" type="line"/>
      <point x="1907" y="889"/>
      <point x="2025" y="780"/>
      <point x="2025" y="561" type="curve" smooth="yes"/>
      <point x="2025" y="557" type="line" smooth="yes"/>
      <point x="2025" y="389"/>
      <point x="1934" y="298"/>
      <point x="1769" y="298" type="curve" smooth="yes"/>
      <point x="1619" y="298"/>
      <point x="1531" y="377"/>
      <point x="1531" y="503" type="curve"/>
      <point x="1531" y="504" type="line"/>
      <point x="1409" y="492" type="line"/>
      <point x="1409" y="361" type="line" smooth="yes"/>
      <point x="1409" y="111"/>
      <point x="1576" y="-37"/>
      <point x="1859" y="-37" type="curve" smooth="yes"/>
      <point x="2219" y="-37"/>
      <point x="2415" y="146"/>
      <point x="2415" y="488" type="curve" smooth="yes"/>
      <point x="2415" y="493" type="line" smooth="yes"/>
      <point x="2415" y="707"/>
      <point x="2320" y="840"/>
      <point x="2129" y="881" type="curve"/>
      <point x="2129" y="911" type="line"/>
    </contour>
    <contour>
      <point x="1636.3" y="1173.68" type="line"/>
      <point x="1636.3" y="889" type="line"/>
      <point x="1992.86" y="889" type="line"/>
      <point x="1992.86" y="1173.68" type="line"/>
    </contour>
    <contour>
      <point x="1540" y="610" type="line" smooth="yes"/>
      <point x="1540" y="1020"/>
      <point x="1282" y="1237"/>
      <point x="815" y="1237" type="curve" smooth="yes"/>
      <point x="348" y="1237"/>
      <point x="90" y="1020"/>
      <point x="90" y="610" type="curve" smooth="yes"/>
      <point x="90" y="588" type="line" smooth="yes"/>
      <point x="90" y="178"/>
      <point x="348" y="-39"/>
      <point x="815" y="-39" type="curve" smooth="yes"/>
      <point x="1282" y="-39"/>
      <point x="1540" y="178"/>
      <point x="1540" y="588" type="curve" smooth="yes"/>
    </contour>
    <contour>
      <point x="815" y="291" type="curve" smooth="yes"/>
      <point x="596" y="291"/>
      <point x="480" y="398"/>
      <point x="480" y="596" type="curve" smooth="yes"/>
      <point x="480" y="602" type="line" smooth="yes"/>
      <point x="480" y="800"/>
      <point x="596" y="907"/>
      <point x="815" y="907" type="curve" smooth="yes"/>
      <point x="1034" y="907"/>
      <point x="1150" y="800"/>
      <point x="1150" y="602" type="curve" smooth="yes"/>
      <point x="1150" y="596" type="line" smooth="yes"/>
      <point x="1150" y="398"/>
      <point x="1034" y="291"/>
    </contour>
    <contour>
      <point x="2011" y="1546" type="line"/>
      <point x="2046" y="1473"/>
      <point x="2075" y="1380"/>
      <point x="2075" y="1305" type="curve" smooth="yes"/>
      <point x="2075" y="1210"/>
      <point x="2041" y="1174"/>
      <point x="1949" y="1174" type="curve" smooth="yes"/>
      <point x="1919" y="1174" type="line"/>
      <point x="1919" y="889" type="line"/>
      <point x="2091" y="889" type="line" smooth="yes"/>
      <point x="2312" y="889"/>
      <point x="2422" y="1005"/>
      <point x="2422" y="1233" type="curve" smooth="yes"/>
      <point x="2422" y="1338"/>
      <point x="2392" y="1446"/>
      <point x="2326" y="1546" type="curve"/>
    </contour>
  </outline>
  <guideline angle="0" x="0" y="759"/>
  <guideline angle="0" x="0" y="275"/>
  <guideline angle="0" x="0" y="1536"/>
</glyph>
<glyph name="RraObsolete.kn" format="2">
  <advance width="2247"/>
  <unicode hex="0CB1"/>
  <outline>
    <contour>
      <point x="80" y="599.7" type="line"/>
      <point x="80" y="594" type="line" smooth="yes"/>
      <point x="80" y="179"/>
      <point x="293" y="-37"/>
      <point x="671" y="-37" type="curve" smooth="yes"/>
      <point x="948.544" y="-37"/>
      <point x="1094.45" y="65.9318"/>
      <point x="1120.58" y="257" type="curve"/>
      <point x="1130.42" y="257" type="line"/>
      <point x="1156.55" y="65.9318"/>
      <point x="1302.46" y="-37"/>
      <point x="1580" y="-37" type="curve" smooth="yes"/>
      <point x="1955" y="-37"/>
      <point x="2167" y="179"/>
      <point x="2167" y="594" type="curve" smooth="yes"/>
      <point x="2167" y="606" type="line" smooth="yes"/>
      <point x="2167" y="1000"/>
      <point x="1968" y="1211"/>
      <point x="1614" y="1211" type="curve" smooth="yes"/>
      <point x="1342" y="1211"/>
      <point x="1196" y="1118"/>
      <point x="1196" y="941" type="curve" smooth="yes"/>
      <point x="1196" y="933" type="line" smooth="yes"/>
      <point x="1196" y="824"/>
      <point x="1269" y="765"/>
      <point x="1383" y="749" type="curve"/>
      <point x="1383" y="698" type="line"/>
      <point x="1671" y="698" type="line"/>
      <point x="1671" y="739" type="line"/>
      <point x="1582" y="739"/>
      <point x="1538" y="766"/>
      <point x="1538" y="824" type="curve" smooth="yes"/>
      <point x="1538" y="828" type="line" smooth="yes"/>
      <point x="1538" y="875"/>
      <point x="1573" y="901"/>
      <point x="1635" y="901" type="curve" smooth="yes"/>
      <point x="1748" y="901"/>
      <point x="1797" y="812"/>
      <point x="1797" y="629" type="curve" smooth="yes"/>
      <point x="1797" y="623" type="line" smooth="yes"/>
      <point x="1797" y="404"/>
      <point x="1709" y="298"/>
      <point x="1531" y="298" type="curve" smooth="yes"/>
      <point x="1407" y="298"/>
      <point x="1353" y="347"/>
      <point x="1332" y="432" type="curve" smooth="yes"/>
      <point x="1330" y="440" type="line"/>
      <point x="921" y="440" type="line"/>
      <point x="919" y="432" type="line" smooth="yes"/>
      <point x="898" y="347"/>
      <point x="844" y="298"/>
      <point x="720" y="298" type="curve" smooth="yes"/>
      <point x="539" y="298"/>
      <point x="450" y="406"/>
      <point x="450" y="627" type="curve" smooth="yes"/>
      <point x="450" y="674.8" type="line"/>
    </contour>
    <contour>
      <point x="1712" y="479" type="line"/>
      <point x="1712" y="739" type="line"/>
      <point x="742" y="739" type="line"/>
      <point x="742" y="479" type="line"/>
    </contour>
    <contour>
      <point x="742" y="479" type="curve"/>
      <point x="953" y="530"/>
      <point x="1076" y="638"/>
      <point x="1076" y="829" type="curve"/>
      <point x="1076" y="831" type="line"/>
      <point x="1076" y="1070"/>
      <point x="915" y="1211"/>
      <point x="613" y="1211" type="curve" smooth="yes"/>
      <point x="272" y="1211"/>
      <point x="80" y="1000"/>
      <point x="80" y="606" type="curve" smooth="yes"/>
      <point x="80" y="598.68" type="line"/>
      <point x="450" y="673.783" type="line"/>
      <point x="450" y="702" type="line" smooth="yes"/>
      <point x="450" y="830"/>
      <point x="506" y="901"/>
      <point x="611" y="901" type="curve" smooth="yes"/>
      <point x="684" y="901"/>
      <point x="723" y="869"/>
      <point x="723" y="805" type="curve"/>
      <point x="723" y="803" type="line"/>
      <point x="723" y="744"/>
      <point x="686" y="713"/>
      <point x="611" y="713" type="curve" smooth="yes"/>
      <point x="531" y="713"/>
      <point x="461" y="740"/>
      <point x="407" y="793" type="curve"/>
      <point x="397" y="641" type="line"/>
      <point x="460" y="641" type="line"/>
      <point x="491" y="536"/>
      <point x="586" y="479"/>
    </contour>
  </outline>
  <guideline angle="90" x="1168" y="0"/>
  <guideline angle="90" x="2255" y="0"/>
</glyph>
<glyph name="matraRu.kn" format="2">
  <advance width="302"/>
  <unicode hex="0CC3"/>
  <outline>
    <contour>
      <point x="-626" y="-412.378" type="line"/>
      <point x="-626" y="-414" type="line"/>
      <point x="-626" y="-667"/>
      <point x="-441" y="-797"/>
      <point x="-130" y="-797" type="curve" smooth="yes"/>
      <point x="233" y="-797"/>
      <point x="422" y="-627"/>
      <point x="422" y="-301" type="curve" smooth="yes"/>
      <point x="422" y="-296" type="line" smooth="yes"/>
      <point x="422" y="-103"/>
      <point x="370" y="67"/>
      <point x="267" y="215" type="curve"/>
      <point x="-20" y="215" type="line"/>
      <point x="88" y="60"/>
      <point x="143" y="-113"/>
      <point x="143" y="-297" type="curve" smooth="yes"/>
      <point x="143" y="-303" type="line" smooth="yes"/>
      <point x="143" y="-486"/>
      <point x="53" y="-578"/>
      <point x="-126" y="-578" type="curve" smooth="yes"/>
      <point x="-299" y="-578"/>
      <point x="-379" y="-530"/>
      <point x="-379" y="-425" type="curve" smooth="yes"/>
      <point x="-379" y="-401.733" type="line"/>
    </contour>
    <contour>
      <point x="-283" y="-94" type="curve" smooth="yes"/>
      <point x="-502" y="-94"/>
      <point x="-626" y="-206"/>
      <point x="-626" y="-411" type="curve" smooth="yes"/>
      <point x="-626" y="-413.378" type="line"/>
      <point x="-379" y="-403" type="line"/>
      <point x="-379" y="-385" type="line" smooth="yes"/>
      <point x="-379" y="-323"/>
      <point x="-348" y="-286"/>
      <point x="-289" y="-286" type="curve" smooth="yes"/>
      <point x="-249" y="-286"/>
      <point x="-226" y="-301"/>
      <point x="-226" y="-328" type="curve"/>
      <point x="-226" y="-330" type="line"/>
      <point x="-226" y="-356"/>
      <point x="-247" y="-370"/>
      <point x="-289" y="-370" type="curve" smooth="yes"/>
      <point x="-336" y="-370"/>
      <point x="-381" y="-350"/>
      <point x="-423" y="-309" type="curve"/>
      <point x="-432" y="-423" type="line"/>
      <point x="-373" y="-423" type="line"/>
      <point x="-353" y="-490"/>
      <point x="-290" y="-523"/>
      <point x="-191" y="-523" type="curve" smooth="yes"/>
      <point x="-66" y="-523"/>
      <point x="7" y="-451"/>
      <point x="7" y="-327" type="curve"/>
      <point x="7" y="-326" type="line"/>
      <point x="7" y="-176"/>
      <point x="-94" y="-94"/>
    </contour>
  </outline>
</glyph>
<glyph name="matraAiLengthmark.kn" format="2">
  <advance width="297"/>
  <unicode hex="0CD6"/>
  <outline>
    <contour>
      <point x="-464" y="-406" type="line"/>
      <point x="-711" y="-422" type="line"/>
      <point x="-711" y="-425" type="line" smooth="yes"/>
      <point x="-711" y="-670.34"/>
      <point x="-514" y="-797"/>
      <point x="-186" y="-797" type="curve" smooth="yes"/>
      <point x="172" y="-797"/>
      <point x="357" y="-667"/>
      <point x="357" y="-418" type="curve" smooth="yes"/>
      <point x="357" y="-413" type="line" smooth="yes"/>
      <point x="357" y="-269"/>
      <point x="288" y="-177"/>
      <point x="156" y="-153" type="curve"/>
      <point x="-86" y="-134" type="line"/>
      <point x="-86" y="-243" type="line"/>
      <point x="-51" y="-244" type="line" smooth="yes"/>
      <point x="42" y="-247"/>
      <point x="90" y="-298"/>
      <point x="90" y="-391" type="curve" smooth="yes"/>
      <point x="90" y="-394" type="line" smooth="yes"/>
      <point x="90" y="-517"/>
      <point x="0" y="-578"/>
      <point x="-182" y="-578" type="curve" smooth="yes"/>
      <point x="-374" y="-578"/>
      <point x="-464" y="-533.315"/>
      <point x="-464" y="-436" type="curve" smooth="yes"/>
    </contour>
    <contour>
      <point x="156" y="-149" type="line"/>
      <point x="273" y="-140"/>
      <point x="336" y="-76"/>
      <point x="336" y="33" type="curve" smooth="yes"/>
      <point x="336" y="101"/>
      <point x="308" y="161"/>
      <point x="254" y="215" type="curve"/>
      <point x="3" y="215" type="line"/>
      <point x="49" y="164"/>
      <point x="71" y="112"/>
      <point x="71" y="57" type="curve" smooth="yes"/>
      <point x="71" y="-8"/>
      <point x="38" y="-44"/>
      <point x="-47" y="-46" type="curve" smooth="yes"/>
      <point x="-86" y="-47" type="line"/>
      <point x="-86" y="-184" type="line"/>
      <point x="156" y="-201" type="line"/>
    </contour>
    <contour>
      <point x="-371" y="-114" type="curve" smooth="yes"/>
      <point x="-588.085" y="-114"/>
      <point x="-711" y="-222.467"/>
      <point x="-711" y="-421" type="curve" smooth="yes"/>
      <point x="-711" y="-423.378" type="line"/>
      <point x="-464" y="-413" type="line"/>
      <point x="-464" y="-395" type="line" smooth="yes"/>
      <point x="-464" y="-339.263"/>
      <point x="-434.033" y="-306"/>
      <point x="-377" y="-306" type="curve" smooth="yes"/>
      <point x="-337" y="-306"/>
      <point x="-314" y="-319.214"/>
      <point x="-314" y="-343" type="curve"/>
      <point x="-314" y="-345" type="line"/>
      <point x="-314" y="-367.75"/>
      <point x="-335" y="-380"/>
      <point x="-377" y="-380" type="curve" smooth="yes"/>
      <point x="-422.948" y="-380"/>
      <point x="-466.94" y="-360"/>
      <point x="-508" y="-319" type="curve"/>
      <point x="-517" y="-433" type="line"/>
      <point x="-458" y="-433" type="line"/>
      <point x="-438.33" y="-500"/>
      <point x="-376.368" y="-533"/>
      <point x="-279" y="-533" type="curve" smooth="yes"/>
      <point x="-154" y="-533"/>
      <point x="-81" y="-462.837"/>
      <point x="-81" y="-342" type="curve"/>
      <point x="-81" y="-341" type="line"/>
      <point x="-81" y="-194.233"/>
      <point x="-182" y="-114"/>
    </contour>
  </outline>
</glyph>
<glyph name="Aaru.kn" format="2">
  <advance width="1538"/>
  <unicode hex="0CEC"/>
  <outline>
    <contour>
      <point x="465" y="375" type="curve" smooth="yes"/>
      <point x="465" y="379" type="line" smooth="yes"/>
      <point x="465" y="434"/>
      <point x="512" y="461"/>
      <point x="628" y="462" type="curve" smooth="yes"/>
      <point x="998" y="465" type="line"/>
      <point x="998" y="742" type="line"/>
      <point x="628" y="745" type="line" smooth="yes"/>
      <point x="519" y="746"/>
      <point x="474" y="770"/>
      <point x="474" y="823" type="curve" smooth="yes"/>
      <point x="474" y="827" type="line" smooth="yes"/>
      <point x="474" y="883"/>
      <point x="527" y="906"/>
      <point x="632" y="906" type="curve" smooth="yes"/>
      <point x="749" y="906"/>
      <point x="849" y="894"/>
      <point x="935" y="870" type="curve"/>
      <point x="896" y="1175" type="line"/>
      <point x="794" y="1199"/>
      <point x="687" y="1213"/>
      <point x="572" y="1213" type="curve" smooth="yes"/>
      <point x="257" y="1213"/>
      <point x="90" y="1100"/>
      <point x="90" y="882" type="curve" smooth="yes"/>
      <point x="90" y="875" type="line" smooth="yes"/>
      <point x="90" y="724"/>
      <point x="173" y="628"/>
      <point x="327" y="604" type="curve"/>
      <point x="327" y="595" type="line"/>
      <point x="170" y="570"/>
      <point x="85" y="475"/>
      <point x="85" y="322" type="curve" smooth="yes"/>
      <point x="85" y="315" type="line" smooth="yes"/>
      <point x="85" y="110"/>
      <point x="251" y="0"/>
      <point x="572" y="0" type="curve" smooth="yes"/>
      <point x="1453" y="0" type="line"/>
      <point x="1513" y="288" type="line"/>
      <point x="621" y="288" type="line" smooth="yes"/>
      <point x="519" y="288"/>
      <point x="465" y="317"/>
    </contour>
  </outline>
  <guideline angle="0" x="0" y="816"/>
</glyph>
<glyph name="BamatraI.kn.1" format="2">
  <advance width="2129"/>
  <outline>
    <contour>
      <point x="605" y="1211" type="curve" smooth="yes"/>
      <point x="280" y="1211"/>
      <point x="101" y="1082"/>
      <point x="101" y="848" type="curve" smooth="yes"/>
      <point x="101" y="841" type="line" smooth="yes"/>
      <point x="101" y="776"/>
      <point x="118" y="724"/>
      <point x="138" y="693" type="curve"/>
      <point x="472" y="693" type="line"/>
      <point x="454" y="721"/>
      <point x="444" y="755"/>
      <point x="444" y="788" type="curve" smooth="yes"/>
      <point x="444" y="791" type="line" smooth="yes"/>
      <point x="444" y="871"/>
      <point x="498" y="911"/>
      <point x="607" y="911" type="curve" smooth="yes"/>
      <point x="701" y="911"/>
      <point x="746" y="882"/>
      <point x="746" y="825" type="curve"/>
      <point x="746" y="823" type="line"/>
      <point x="746" y="773"/>
      <point x="709" y="750"/>
      <point x="579" y="726" type="curve" smooth="yes"/>
      <point x="482" y="708" type="line" smooth="yes"/>
      <point x="194" y="655"/>
      <point x="76" y="553"/>
      <point x="76" y="343" type="curve" smooth="yes"/>
      <point x="76" y="335" type="line" smooth="yes"/>
      <point x="76" y="95"/>
      <point x="256.07" y="-37"/>
      <point x="581" y="-37" type="curve" smooth="yes"/>
      <point x="867.48" y="-37"/>
      <point x="1019.8" y="74"/>
      <point x="1043" y="273" type="curve"/>
      <point x="1064" y="273" type="line"/>
      <point x="1064" y="476" type="line"/>
      <point x="842" y="476" type="line"/>
      <point x="841" y="462" type="line" smooth="yes"/>
      <point x="832.283" y="339.969"/>
      <point x="747.498" y="276"/>
      <point x="592" y="276" type="curve" smooth="yes"/>
      <point x="487.946" y="276"/>
      <point x="440" y="303"/>
      <point x="440" y="351" type="curve" smooth="yes"/>
      <point x="440" y="355" type="line" smooth="yes"/>
      <point x="440" y="404"/>
      <point x="479" y="427"/>
      <point x="613" y="452" type="curve" smooth="yes"/>
      <point x="710" y="470" type="line" smooth="yes"/>
      <point x="974" y="519"/>
      <point x="1099" y="618"/>
      <point x="1099" y="817" type="curve" smooth="yes"/>
      <point x="1099" y="823" type="line" smooth="yes"/>
      <point x="1099" y="1074"/>
      <point x="925" y="1211"/>
    </contour>
    <contour>
      <point x="2036" y="698" type="curve" smooth="yes"/>
      <point x="2036" y="705" type="line" smooth="yes"/>
      <point x="2036" y="1092.75"/>
      <point x="1897.97" y="1425"/>
      <point x="1452" y="1425" type="curve" smooth="yes"/>
      <point x="1156" y="1425"/>
      <point x="1000" y="1295"/>
      <point x="1000" y="1056" type="curve"/>
      <point x="1000" y="1054" type="line"/>
      <point x="1000" y="843"/>
      <point x="1140.54" y="721"/>
      <point x="1373" y="721" type="curve" smooth="yes"/>
      <point x="1542.81" y="721"/>
      <point x="1643.81" y="790.793"/>
      <point x="1676" y="915" type="curve"/>
      <point x="1622" y="1076" type="line"/>
      <point x="1581.93" y="1007.21"/>
      <point x="1523.73" y="972"/>
      <point x="1452" y="972" type="curve" smooth="yes"/>
      <point x="1377" y="972"/>
      <point x="1339" y="998"/>
      <point x="1339" y="1048" type="curve"/>
      <point x="1339" y="1050" type="line"/>
      <point x="1339" y="1106"/>
      <point x="1380" y="1135"/>
      <point x="1450" y="1135" type="curve" smooth="yes"/>
      <point x="1631.81" y="1135"/>
      <point x="1646" y="889.414"/>
      <point x="1646" y="705" type="curve" smooth="yes"/>
      <point x="1646" y="699" type="line" smooth="yes"/>
      <point x="1646" y="430"/>
      <point x="1575" y="298"/>
      <point x="1428" y="298" type="curve" smooth="yes"/>
      <point x="1320.36" y="298"/>
      <point x="1261.69" y="352.977"/>
      <point x="1255" y="460" type="curve" smooth="yes"/>
      <point x="1254" y="476" type="line"/>
      <point x="1032" y="476" type="line"/>
      <point x="1053" y="273" type="line" smooth="yes"/>
      <point x="1073.59" y="73.9521"/>
      <point x="1218.38" y="-37"/>
      <point x="1487" y="-37" type="curve" smooth="yes"/>
      <point x="1849" y="-37"/>
      <point x="2036" y="216"/>
    </contour>
  </outline>
  <guideline angle="90" x="1016" y="0"/>
  <guideline angle="90" x="313" y="0"/>
  <guideline angle="0" x="0" y="2043"/>
  <guideline angle="0" x="0" y="1525"/>
</glyph>
<glyph name="Basmall1.kn" format="2">
  <outline>
    <contour>
      <point x="15" y="-112" type="curve" smooth="yes"/>
      <point x="-14" y="-112"/>
      <point x="-38" y="-114"/>
      <point x="-61" y="-117" type="curve"/>
      <point x="-61" y="-332" type="line"/>
      <point x="-46" y="-330"/>
      <point x="-32" y="-329"/>
      <point x="-18" y="-329" type="curve" smooth="yes"/>
      <point x="73" y="-329"/>
      <point x="117" y="-370"/>
      <point x="117" y="-455" type="curve" smooth="yes"/>
      <point x="117" y="-461" type="line" smooth="yes"/>
      <point x="117" y="-536"/>
      <point x="86" y="-577"/>
      <point x="25" y="-577" type="curve" smooth="yes"/>
      <point x="-35" y="-577"/>
      <point x="-61" y="-550"/>
      <point x="-67" y="-507" type="curve" smooth="yes"/>
      <point x="-68" y="-500" type="line"/>
      <point x="-216" y="-500" type="line"/>
      <point x="-194" y="-644" type="line"/>
      <point x="-168" y="-746"/>
      <point x="-90" y="-797"/>
      <point x="63" y="-797" type="curve" smooth="yes"/>
      <point x="272" y="-797"/>
      <point x="379" y="-684"/>
      <point x="379" y="-469" type="curve" smooth="yes"/>
      <point x="379" y="-461" type="line" smooth="yes"/>
      <point x="379" y="-233"/>
      <point x="253" y="-112"/>
    </contour>
    <contour>
      <point x="-457" y="-95" type="curve" smooth="yes"/>
      <point x="-655" y="-95"/>
      <point x="-766" y="-165"/>
      <point x="-766" y="-292" type="curve"/>
      <point x="-766" y="-292"/>
      <point x="-766" y="-294"/>
      <point x="-766" y="-294" type="curve"/>
      <point x="-766" y="-327"/>
      <point x="-759" y="-356"/>
      <point x="-745" y="-376" type="curve"/>
      <point x="-532" y="-376" type="line"/>
      <point x="-539" y="-360"/>
      <point x="-542" y="-345"/>
      <point x="-542" y="-334" type="curve"/>
      <point x="-542" y="-334"/>
      <point x="-542" y="-331"/>
      <point x="-542" y="-331" type="curve"/>
      <point x="-542" y="-298"/>
      <point x="-515" y="-281"/>
      <point x="-455" y="-281" type="curve" smooth="yes"/>
      <point x="-408" y="-281"/>
      <point x="-384" y="-293"/>
      <point x="-384" y="-316" type="curve"/>
      <point x="-384" y="-317" type="line"/>
      <point x="-384" y="-338"/>
      <point x="-405" y="-348"/>
      <point x="-460" y="-357" type="curve" smooth="yes"/>
      <point x="-542" y="-370" type="line" smooth="yes"/>
      <point x="-713" y="-397"/>
      <point x="-783" y="-460"/>
      <point x="-783" y="-581" type="curve" smooth="yes"/>
      <point x="-783" y="-586" type="line" smooth="yes"/>
      <point x="-783" y="-718"/>
      <point x="-669" y="-797"/>
      <point x="-472" y="-797" type="curve" smooth="yes"/>
      <point x="-311" y="-797"/>
      <point x="-220" y="-741"/>
      <point x="-200" y="-644" type="curve"/>
      <point x="-138" y="-644" type="line"/>
      <point x="-176" y="-500" type="line"/>
      <point x="-325" y="-500" type="line"/>
      <point x="-326" y="-507" type="line" smooth="yes"/>
      <point x="-333" y="-559"/>
      <point x="-377" y="-592"/>
      <point x="-466" y="-592" type="curve" smooth="yes"/>
      <point x="-516" y="-592"/>
      <point x="-539" y="-581"/>
      <point x="-539" y="-564" type="curve"/>
      <point x="-539" y="-562" type="line"/>
      <point x="-539" y="-543"/>
      <point x="-516" y="-531"/>
      <point x="-451" y="-520" type="curve" smooth="yes"/>
      <point x="-392" y="-510" type="line" smooth="yes"/>
      <point x="-223" y="-481"/>
      <point x="-152" y="-430"/>
      <point x="-152" y="-320" type="curve" smooth="yes"/>
      <point x="-152" y="-316" type="line" smooth="yes"/>
      <point x="-152" y="-174"/>
      <point x="-261" y="-95"/>
    </contour>
  </outline>
  <guideline angle="90" x="625" y="0"/>
  <guideline angle="0" x="0" y="-269"/>
</glyph>
<glyph name="BhaHalant.kn" format="2">
  <advance width="2989"/>
  <outline>
    <component base="BaHalant.kn"/>
    <contour>
      <point x="1043" y="-462" type="curve" smooth="yes"/>
      <point x="1179" y="-462"/>
      <point x="1250" y="-397"/>
      <point x="1250" y="-272" type="curve" smooth="yes"/>
      <point x="1250" y="-264" type="line" smooth="yes"/>
      <point x="1250" y="-153"/>
      <point x="1193" y="-65"/>
      <point x="1043" y="46" type="curve"/>
      <point x="893" y="-65"/>
      <point x="836" y="-153"/>
      <point x="836" y="-264" type="curve" smooth="yes"/>
      <point x="836" y="-272" type="line" smooth="yes"/>
      <point x="836" y="-397"/>
      <point x="907" y="-462"/>
    </contour>
  </outline>
  <guideline angle="90" x="3541" y="0"/>
  <guideline angle="0" x="0" y="871"/>
  <guideline angle="90" x="1043" y="0"/>
  <guideline angle="90" x="78" y="0"/>
</glyph>
<glyph name="BhamatraI.kn.1" format="2">
  <advance width="2129"/>
  <outline>
    <component base="BamatraI.kn.1"/>
    <contour>
      <point x="1049" y="-462" type="curve" smooth="yes"/>
      <point x="1185" y="-462"/>
      <point x="1256" y="-397"/>
      <point x="1256" y="-272" type="curve" smooth="yes"/>
      <point x="1256" y="-264" type="line" smooth="yes"/>
      <point x="1256" y="-153"/>
      <point x="1199" y="-65"/>
      <point x="1049" y="46" type="curve"/>
      <point x="899" y="-65"/>
      <point x="842" y="-153"/>
      <point x="842" y="-264" type="curve" smooth="yes"/>
      <point x="842" y="-272" type="line" smooth="yes"/>
      <point x="842" y="-397"/>
      <point x="913" y="-462"/>
    </contour>
  </outline>
  <guideline angle="90" x="78" y="0"/>
</glyph>
<glyph name="Bhasmall1.kn" format="2">
  <outline>
    <component base="Basmall1.kn"/>
    <contour>
      <point x="-196" y="-734" type="curve"/>
      <point x="-297" y="-802"/>
      <point x="-337" y="-859"/>
      <point x="-337" y="-933" type="curve" smooth="yes"/>
      <point x="-337" y="-936" type="line" smooth="yes"/>
      <point x="-337" y="-1008"/>
      <point x="-290" y="-1047"/>
      <point x="-196" y="-1047" type="curve" smooth="yes"/>
      <point x="-106" y="-1047"/>
      <point x="-56" y="-1008"/>
      <point x="-56" y="-936" type="curve" smooth="yes"/>
      <point x="-56" y="-933" type="line" smooth="yes"/>
      <point x="-56" y="-859"/>
      <point x="-95" y="-802"/>
    </contour>
  </outline>
  <guideline angle="90" x="625" y="0"/>
</glyph>
<glyph name="Chasmall1.kn" format="2">
  <outline>
    <contour>
      <point x="-524" y="-398" type="line"/>
      <point x="-524" y="-385" type="line" smooth="yes"/>
      <point x="-524" y="-323"/>
      <point x="-495" y="-286"/>
      <point x="-439" y="-286" type="curve" smooth="yes"/>
      <point x="-402" y="-286"/>
      <point x="-381" y="-300"/>
      <point x="-381" y="-326" type="curve"/>
      <point x="-381" y="-328" type="line"/>
      <point x="-381" y="-353"/>
      <point x="-400" y="-366"/>
      <point x="-439" y="-366" type="curve" smooth="yes"/>
      <point x="-484" y="-366"/>
      <point x="-528" y="-348"/>
      <point x="-568" y="-309" type="curve"/>
      <point x="-577" y="-423" type="line"/>
      <point x="-518" y="-423" type="line"/>
      <point x="-499" y="-488"/>
      <point x="-442" y="-519"/>
      <point x="-351" y="-519" type="curve" smooth="yes"/>
      <point x="-223" y="-519"/>
      <point x="-148" y="-448"/>
      <point x="-148" y="-325" type="curve"/>
      <point x="-148" y="-324" type="line"/>
      <point x="-148" y="-175"/>
      <point x="-248" y="-94"/>
      <point x="-437" y="-94" type="curve" smooth="yes"/>
      <point x="-650" y="-94"/>
      <point x="-771" y="-216"/>
      <point x="-771" y="-441" type="curve"/>
      <point x="-771" y="-442.354" type="line"/>
    </contour>
    <contour>
      <point x="-771" y="-442.354" type="line"/>
      <point x="-771" y="-444" type="line"/>
      <point x="-771" y="-677"/>
      <point x="-646" y="-797"/>
      <point x="-435" y="-797" type="curve" smooth="yes"/>
      <point x="-274" y="-797"/>
      <point x="-183" y="-741"/>
      <point x="-163" y="-644" type="curve"/>
      <point x="-157" y="-644" type="line"/>
      <point x="-131" y="-746"/>
      <point x="-53" y="-797"/>
      <point x="100" y="-797" type="curve" smooth="yes"/>
      <point x="309" y="-797"/>
      <point x="416" y="-684"/>
      <point x="416" y="-469" type="curve" smooth="yes"/>
      <point x="416" y="-461" type="line" smooth="yes"/>
      <point x="416" y="-233"/>
      <point x="290" y="-112"/>
      <point x="52" y="-112" type="curve" smooth="yes"/>
      <point x="23" y="-112"/>
      <point x="-1" y="-114"/>
      <point x="-24" y="-117" type="curve"/>
      <point x="-24" y="-332" type="line"/>
      <point x="-9" y="-330"/>
      <point x="5" y="-329"/>
      <point x="19" y="-329" type="curve" smooth="yes"/>
      <point x="110" y="-329"/>
      <point x="154" y="-370"/>
      <point x="154" y="-455" type="curve" smooth="yes"/>
      <point x="154" y="-461" type="line" smooth="yes"/>
      <point x="154" y="-536"/>
      <point x="123" y="-577"/>
      <point x="62" y="-577" type="curve" smooth="yes"/>
      <point x="2" y="-577"/>
      <point x="-24" y="-550"/>
      <point x="-30" y="-507" type="curve" smooth="yes"/>
      <point x="-31" y="-500" type="line"/>
      <point x="-288" y="-500" type="line"/>
      <point x="-289" y="-507" type="line" smooth="yes"/>
      <point x="-296" y="-555"/>
      <point x="-326" y="-585"/>
      <point x="-391" y="-585" type="curve" smooth="yes"/>
      <point x="-480" y="-585"/>
      <point x="-524" y="-537"/>
      <point x="-524" y="-425" type="curve" smooth="yes"/>
      <point x="-524" y="-393.802" type="line"/>
    </contour>
    <contour>
      <point x="-161" y="-734" type="curve"/>
      <point x="-262" y="-802"/>
      <point x="-302" y="-859"/>
      <point x="-302" y="-933" type="curve" smooth="yes"/>
      <point x="-302" y="-936" type="line" smooth="yes"/>
      <point x="-302" y="-1008"/>
      <point x="-255" y="-1047"/>
      <point x="-161" y="-1047" type="curve" smooth="yes"/>
      <point x="-71" y="-1047"/>
      <point x="-21" y="-1008"/>
      <point x="-21" y="-936" type="curve" smooth="yes"/>
      <point x="-21" y="-933" type="line" smooth="yes"/>
      <point x="-21" y="-859"/>
      <point x="-60" y="-802"/>
    </contour>
  </outline>
  <guideline angle="90" x="315" y="0"/>
</glyph>
<glyph name="DamatraI.kn" format="2">
  <advance width="2014"/>
  <outline>
    <contour>
      <point x="965" y="1170" type="curve" smooth="yes"/>
      <point x="758" y="1170"/>
      <point x="559" y="1127"/>
      <point x="417" y="1026" type="curve"/>
      <point x="315" y="944" type="line"/>
      <point x="174" y="850.037"/>
      <point x="91" y="693.624"/>
      <point x="91" y="467" type="curve" smooth="yes"/>
      <point x="91" y="462" type="line" smooth="yes"/>
      <point x="91" y="135.456"/>
      <point x="265" y="-37"/>
      <point x="588" y="-37" type="curve" smooth="yes"/>
      <point x="844" y="-37"/>
      <point x="980" y="74"/>
      <point x="1000" y="273" type="curve"/>
      <point x="1010" y="273" type="line"/>
      <point x="1030" y="74"/>
      <point x="1166" y="-37"/>
      <point x="1422" y="-37" type="curve" smooth="yes"/>
      <point x="1745" y="-37"/>
      <point x="1919" y="157"/>
      <point x="1919" y="530" type="curve" smooth="yes"/>
      <point x="1919" y="536" type="line"/>
      <point x="1627" y="984" type="line"/>
      <point x="1573" y="958" type="line"/>
      <point x="1449" y="1103"/>
      <point x="1246" y="1170"/>
    </contour>
    <contour>
      <point x="801" y="506" type="line"/>
      <point x="798" y="462" type="line" smooth="yes"/>
      <point x="791" y="354"/>
      <point x="740" y="298"/>
      <point x="644" y="298" type="curve" smooth="yes"/>
      <point x="536" y="298"/>
      <point x="481" y="365"/>
      <point x="481" y="503" type="curve" smooth="yes"/>
      <point x="481" y="507" type="line" smooth="yes"/>
      <point x="481" y="740"/>
      <point x="653" y="858"/>
      <point x="1005" y="858" type="curve" smooth="yes"/>
      <point x="1357" y="858"/>
      <point x="1529" y="740"/>
      <point x="1529" y="507" type="curve" smooth="yes"/>
      <point x="1529" y="503" type="line" smooth="yes"/>
      <point x="1529" y="365"/>
      <point x="1474" y="298"/>
      <point x="1366" y="298" type="curve" smooth="yes"/>
      <point x="1270" y="298"/>
      <point x="1219" y="354"/>
      <point x="1212" y="462" type="curve" smooth="yes"/>
      <point x="1209" y="506" type="line"/>
    </contour>
    <contour>
      <point x="852" y="1629" type="curve" smooth="yes"/>
      <point x="358" y="1629"/>
      <point x="93" y="1469"/>
      <point x="93" y="1187" type="curve" smooth="yes"/>
      <point x="93" y="1005"/>
      <point x="191" y="902"/>
      <point x="408" y="855" type="curve"/>
      <point x="547" y="1080" type="line"/>
      <point x="506" y="1093"/>
      <point x="484" y="1123"/>
      <point x="484" y="1165" type="curve" smooth="yes"/>
      <point x="484" y="1261"/>
      <point x="608.279" y="1315"/>
      <point x="863" y="1315" type="curve" smooth="yes"/>
      <point x="1229" y="1315"/>
      <point x="1628" y="1174"/>
      <point x="1628" y="706" type="curve" smooth="yes"/>
      <point x="1628" y="543" type="line"/>
      <point x="1919" y="536" type="line"/>
      <point x="1919" y="546" type="line" smooth="yes"/>
      <point x="1919" y="1263"/>
      <point x="1562" y="1629"/>
    </contour>
  </outline>
  <guideline angle="0" x="0" y="1726"/>
  <guideline angle="0" x="0" y="1726"/>
  <guideline angle="0" x="0" y="1629"/>
</glyph>
<glyph name="Dasmall1.kn" format="2">
  <outline>
    <contour>
      <point x="-351" y="-470" type="line"/>
      <point x="-354" y="-492" type="line" smooth="yes"/>
      <point x="-361" y="-544"/>
      <point x="-384" y="-577"/>
      <point x="-443" y="-577" type="curve" smooth="yes"/>
      <point x="-499" y="-577"/>
      <point x="-528" y="-544"/>
      <point x="-528" y="-484" type="curve" smooth="yes"/>
      <point x="-528" y="-480" type="line" smooth="yes"/>
      <point x="-528" y="-367"/>
      <point x="-436" y="-314"/>
      <point x="-224" y="-314" type="curve" smooth="yes"/>
      <point x="-13" y="-314"/>
      <point x="79" y="-367"/>
      <point x="79" y="-480" type="curve" smooth="yes"/>
      <point x="79" y="-484" type="line" smooth="yes"/>
      <point x="79" y="-544"/>
      <point x="50" y="-577"/>
      <point x="-6" y="-577" type="curve" smooth="yes"/>
      <point x="-65" y="-577"/>
      <point x="-88" y="-544"/>
      <point x="-95" y="-492" type="curve" smooth="yes"/>
      <point x="-98" y="-470" type="line"/>
    </contour>
    <contour>
      <point x="-225" y="-94" type="curve" smooth="yes"/>
      <point x="-598" y="-94"/>
      <point x="-791" y="-228"/>
      <point x="-791" y="-488" type="curve" smooth="yes"/>
      <point x="-791" y="-492" type="line" smooth="yes"/>
      <point x="-791" y="-692"/>
      <point x="-684" y="-797"/>
      <point x="-475" y="-797" type="curve" smooth="yes"/>
      <point x="-328" y="-797"/>
      <point x="-253" y="-746"/>
      <point x="-228" y="-644" type="curve"/>
      <point x="-222" y="-644" type="line"/>
      <point x="-197" y="-746"/>
      <point x="-122" y="-797"/>
      <point x="25" y="-797" type="curve" smooth="yes"/>
      <point x="234" y="-797"/>
      <point x="341" y="-692"/>
      <point x="341" y="-492" type="curve" smooth="yes"/>
      <point x="341" y="-488" type="line" smooth="yes"/>
      <point x="341" y="-228"/>
      <point x="148" y="-94"/>
    </contour>
  </outline>
  <guideline angle="90" x="604" y="0"/>
</glyph>
<glyph name="DdamatraO.kn" format="2">
  <advance width="3780"/>
  <outline>
    <component base="DdamatraE.kn"/>
    <contour>
      <point x="2076" y="294" type="curve" smooth="yes"/>
      <point x="1991" y="294"/>
      <point x="1943" y="347"/>
      <point x="1919" y="398" type="curve"/>
      <point x="1919" y="398"/>
      <point x="1919" y="398"/>
      <point x="1919" y="398" type="curve"/>
      <point x="1847" y="386" type="line"/>
      <point x="1847" y="271" type="line" smooth="yes"/>
      <point x="1847" y="79"/>
      <point x="1973" y="-36"/>
      <point x="2185" y="-36" type="curve" smooth="yes"/>
      <point x="2443" y="-36"/>
      <point x="2577" y="125"/>
      <point x="2577" y="429" type="curve" smooth="yes"/>
      <point x="2577" y="501" type="line"/>
      <point x="2202" y="507" type="line"/>
      <point x="2202" y="449" type="line" smooth="yes"/>
      <point x="2202" y="342"/>
      <point x="2162" y="294"/>
    </contour>
    <contour>
      <point x="2942.98" y="1211" type="curve" smooth="yes"/>
      <point x="2454.98" y="1211"/>
      <point x="2201.98" y="984"/>
      <point x="2201.98" y="547" type="curve" smooth="yes"/>
      <point x="2201.98" y="487" type="line"/>
      <point x="2576.98" y="487" type="line"/>
      <point x="2576.98" y="541" type="line" smooth="yes"/>
      <point x="2576.98" y="771"/>
      <point x="2700.98" y="886"/>
      <point x="2944.98" y="886" type="curve" smooth="yes"/>
      <point x="3185.98" y="886"/>
      <point x="3309.98" y="767"/>
      <point x="3309.98" y="541" type="curve" smooth="yes"/>
      <point x="3309.98" y="475.557" type="line"/>
      <point x="3689.98" y="523.496" type="line"/>
      <point x="3689.98" y="529" type="line" smooth="yes"/>
      <point x="3689.98" y="976"/>
      <point x="3433.98" y="1211"/>
    </contour>
    <contour>
      <point x="3689.98" y="524.496" type="line"/>
      <point x="3309.98" y="476.557" type="line"/>
      <point x="3309.98" y="452" type="line" smooth="yes"/>
      <point x="3309.98" y="328"/>
      <point x="3258.98" y="263"/>
      <point x="3161.98" y="263" type="curve" smooth="yes"/>
      <point x="3084.98" y="263"/>
      <point x="3042.98" y="299"/>
      <point x="3042.98" y="367" type="curve"/>
      <point x="3042.98" y="369" type="line"/>
      <point x="3042.98" y="431"/>
      <point x="3082.98" y="466"/>
      <point x="3161.98" y="466" type="curve" smooth="yes"/>
      <point x="3236.98" y="466"/>
      <point x="3301.98" y="436"/>
      <point x="3352.98" y="377" type="curve"/>
      <point x="3362.98" y="530" type="line"/>
      <point x="3299.98" y="530" type="line"/>
      <point x="3270.98" y="660"/>
      <point x="3178.98" y="731"/>
      <point x="3030.98" y="731" type="curve" smooth="yes"/>
      <point x="2811.98" y="731"/>
      <point x="2682.98" y="599"/>
      <point x="2682.98" y="374" type="curve"/>
      <point x="2682.98" y="372" type="line"/>
      <point x="2682.98" y="106"/>
      <point x="2851.98" y="-36"/>
      <point x="3164.98" y="-36" type="curve" smooth="yes"/>
      <point x="3500.98" y="-36"/>
      <point x="3689.98" y="158"/>
      <point x="3689.98" y="518" type="curve" smooth="yes"/>
    </contour>
  </outline>
</glyph>
<glyph name="Ddasmall1.kn" format="2">
  <outline>
    <contour>
      <point x="-215" y="-94" type="curve" smooth="yes"/>
      <point x="-595" y="-94"/>
      <point x="-791" y="-228"/>
      <point x="-791" y="-488" type="curve" smooth="yes"/>
      <point x="-791" y="-492" type="line" smooth="yes"/>
      <point x="-791" y="-692"/>
      <point x="-684" y="-797"/>
      <point x="-475" y="-797" type="curve" smooth="yes"/>
      <point x="-328" y="-797"/>
      <point x="-253" y="-746"/>
      <point x="-228" y="-644" type="curve"/>
      <point x="-222" y="-644" type="line"/>
      <point x="-193" y="-746"/>
      <point x="-105" y="-797"/>
      <point x="68" y="-797" type="curve" smooth="yes"/>
      <point x="264" y="-797"/>
      <point x="367" y="-729"/>
      <point x="367" y="-596" type="curve" smooth="yes"/>
      <point x="367" y="-592" type="line" smooth="yes"/>
      <point x="367" y="-502"/>
      <point x="310" y="-450"/>
      <point x="204" y="-435" type="curve"/>
      <point x="204" y="-429" type="line"/>
      <point x="277" y="-416"/>
      <point x="314" y="-377"/>
      <point x="314" y="-311" type="curve"/>
      <point x="314" y="-309" type="line"/>
      <point x="314" y="-170"/>
      <point x="136" y="-94"/>
    </contour>
    <contour>
      <point x="37" y="-585" type="curve" smooth="yes"/>
      <point x="-51" y="-585"/>
      <point x="-86" y="-548"/>
      <point x="-95" y="-492" type="curve" smooth="yes"/>
      <point x="-97" y="-480" type="line"/>
      <point x="-352" y="-480" type="line"/>
      <point x="-354" y="-492" type="line" smooth="yes"/>
      <point x="-363" y="-543"/>
      <point x="-384" y="-577"/>
      <point x="-443" y="-577" type="curve" smooth="yes"/>
      <point x="-499" y="-577"/>
      <point x="-528" y="-544"/>
      <point x="-528" y="-484" type="curve" smooth="yes"/>
      <point x="-528" y="-480" type="line" smooth="yes"/>
      <point x="-528" y="-360"/>
      <point x="-429" y="-306"/>
      <point x="-203" y="-306" type="curve" smooth="yes"/>
      <point x="-14" y="-306"/>
      <point x="60" y="-316"/>
      <point x="60" y="-344" type="curve"/>
      <point x="60" y="-345" type="line"/>
      <point x="60" y="-359"/>
      <point x="47" y="-366"/>
      <point x="7" y="-367" type="curve" smooth="yes"/>
      <point x="-51" y="-369" type="line"/>
      <point x="-51" y="-516" type="line"/>
      <point x="41" y="-518" type="line" smooth="yes"/>
      <point x="89" y="-519"/>
      <point x="113" y="-528"/>
      <point x="113" y="-549" type="curve" smooth="yes"/>
      <point x="113" y="-552" type="line" smooth="yes"/>
      <point x="113" y="-573"/>
      <point x="88" y="-585"/>
    </contour>
  </outline>
</glyph>
<glyph name="DdhamatraAu.kn" format="2">
  <advance width="3045"/>
  <outline>
    <component base="DdamatraAu.kn"/>
    <contour>
      <point x="1011" y="-462" type="curve" smooth="yes"/>
      <point x="1147" y="-462"/>
      <point x="1218" y="-397"/>
      <point x="1218" y="-272" type="curve" smooth="yes"/>
      <point x="1218" y="-264" type="line" smooth="yes"/>
      <point x="1218" y="-153"/>
      <point x="1161" y="-65"/>
      <point x="1011" y="46" type="curve"/>
      <point x="861" y="-65"/>
      <point x="804" y="-153"/>
      <point x="804" y="-264" type="curve" smooth="yes"/>
      <point x="804" y="-272" type="line" smooth="yes"/>
      <point x="804" y="-397"/>
      <point x="875" y="-462"/>
    </contour>
  </outline>
  <guideline angle="90" x="97" y="0"/>
</glyph>
<glyph name="DhamatraI.kn" format="2">
  <advance width="2014"/>
  <outline>
    <component base="DamatraI.kn"/>
    <contour>
      <point x="1006" y="-462" type="curve" smooth="yes"/>
      <point x="1142" y="-462"/>
      <point x="1213" y="-397"/>
      <point x="1213" y="-272" type="curve" smooth="yes"/>
      <point x="1213" y="-264" type="line" smooth="yes"/>
      <point x="1213" y="-153"/>
      <point x="1156" y="-65"/>
      <point x="1006" y="46" type="curve"/>
      <point x="856" y="-65"/>
      <point x="799" y="-153"/>
      <point x="799" y="-264" type="curve" smooth="yes"/>
      <point x="799" y="-272" type="line" smooth="yes"/>
      <point x="799" y="-397"/>
      <point x="870" y="-462"/>
    </contour>
  </outline>
  <guideline angle="90" x="91" y="0"/>
</glyph>
<glyph name="Gasmall1.kn" format="2">
  <outline>
    <contour>
      <point x="-298" y="-94" type="curve" smooth="yes"/>
      <point x="-587" y="-94"/>
      <point x="-732" y="-238"/>
      <point x="-732" y="-508" type="curve" smooth="yes"/>
      <point x="-732" y="-785" type="line"/>
      <point x="-452" y="-785" type="line"/>
      <point x="-452" y="-514" type="line" smooth="yes"/>
      <point x="-452" y="-389"/>
      <point x="-402" y="-329"/>
      <point x="-298" y="-329" type="curve" smooth="yes"/>
      <point x="-194" y="-329"/>
      <point x="-144" y="-389"/>
      <point x="-144" y="-514" type="curve" smooth="yes"/>
      <point x="-144" y="-785" type="line"/>
      <point x="136" y="-785" type="line"/>
      <point x="136" y="-508" type="line" smooth="yes"/>
      <point x="136" y="-238"/>
      <point x="-9" y="-94"/>
    </contour>
  </outline>
</glyph>
<glyph name="GhamatraI.kn" format="2">
  <advance width="2091"/>
  <outline>
    <component base="matraI.kn" xOffset="531" yOffset="10"/>
    <contour>
      <point x="1246" y="456" type="curve" smooth="yes"/>
      <point x="1241" y="506" type="line"/>
      <point x="834" y="506" type="line"/>
      <point x="831" y="462" type="line" smooth="yes"/>
      <point x="823" y="347"/>
      <point x="747" y="288"/>
      <point x="610" y="288" type="curve" smooth="yes"/>
      <point x="503" y="288"/>
      <point x="454" y="317"/>
      <point x="454" y="377" type="curve"/>
      <point x="454" y="379" type="line"/>
      <point x="454" y="432"/>
      <point x="496" y="461"/>
      <point x="576" y="461" type="curve" smooth="yes"/>
      <point x="627" y="461"/>
      <point x="677" y="452"/>
      <point x="713" y="436" type="curve"/>
      <point x="694" y="732" type="line"/>
      <point x="636" y="754"/>
      <point x="577" y="763"/>
      <point x="497" y="763" type="curve" smooth="yes"/>
      <point x="225" y="763"/>
      <point x="73" y="619"/>
      <point x="73" y="379" type="curve" smooth="yes"/>
      <point x="73" y="373" type="line" smooth="yes"/>
      <point x="73" y="104"/>
      <point x="248" y="-37"/>
      <point x="581" y="-37" type="curve" smooth="yes"/>
      <point x="862" y="-37"/>
      <point x="1010" y="74"/>
      <point x="1033" y="273" type="curve"/>
      <point x="1043" y="273" type="line"/>
      <point x="1064" y="74"/>
      <point x="1208" y="-37"/>
      <point x="1476" y="-37" type="curve" smooth="yes"/>
      <point x="1806" y="-37"/>
      <point x="1973" y="79"/>
      <point x="1973" y="303" type="curve" smooth="yes"/>
      <point x="1973" y="310" type="line" smooth="yes"/>
      <point x="1973" y="454"/>
      <point x="1888" y="538"/>
      <point x="1715" y="558" type="curve"/>
      <point x="1715" y="589" type="line"/>
      <point x="1379" y="589" type="line"/>
      <point x="1379" y="475" type="line"/>
      <point x="1418" y="474" type="line" smooth="yes"/>
      <point x="1544" y="471"/>
      <point x="1588" y="440"/>
      <point x="1588" y="383" type="curve" smooth="yes"/>
      <point x="1588" y="379" type="line" smooth="yes"/>
      <point x="1588" y="315"/>
      <point x="1538" y="287"/>
      <point x="1437" y="287" type="curve" smooth="yes"/>
      <point x="1321" y="287"/>
      <point x="1258" y="339"/>
    </contour>
    <contour>
      <point x="1715" y="568" type="line" smooth="yes"/>
      <point x="1957" y="570"/>
      <point x="2058" y="640"/>
      <point x="2058" y="792" type="curve" smooth="yes"/>
      <point x="2058" y="840"/>
      <point x="2044" y="886"/>
      <point x="2020" y="924" type="curve"/>
      <point x="1650" y="924" type="line"/>
      <point x="1663" y="891"/>
      <point x="1668" y="863"/>
      <point x="1668" y="834" type="curve" smooth="yes"/>
      <point x="1668" y="765"/>
      <point x="1632" y="734"/>
      <point x="1504" y="730" type="curve" smooth="yes"/>
      <point x="1379" y="726" type="line"/>
      <point x="1379" y="565" type="line"/>
    </contour>
    <contour>
      <point x="1038" y="-462" type="curve" smooth="yes"/>
      <point x="1174" y="-462"/>
      <point x="1245" y="-397"/>
      <point x="1245" y="-272" type="curve" smooth="yes"/>
      <point x="1245" y="-264" type="line" smooth="yes"/>
      <point x="1245" y="-153"/>
      <point x="1188" y="-65"/>
      <point x="1038" y="46" type="curve"/>
      <point x="888" y="-65"/>
      <point x="831" y="-153"/>
      <point x="831" y="-264" type="curve" smooth="yes"/>
      <point x="831" y="-272" type="line" smooth="yes"/>
      <point x="831" y="-397"/>
      <point x="902" y="-462"/>
    </contour>
  </outline>
  <guideline angle="90" x="73" y="0"/>
</glyph>
<glyph name="Hasmall1.kn" format="2">
  <outline>
    <contour>
      <point x="-447" y="-133" type="curve" smooth="yes"/>
      <point x="-664" y="-133"/>
      <point x="-780" y="-241"/>
      <point x="-780" y="-449" type="curve" smooth="yes"/>
      <point x="-780" y="-453" type="line" smooth="yes"/>
      <point x="-780" y="-660"/>
      <point x="-664" y="-769"/>
      <point x="-447" y="-769" type="curve" smooth="yes"/>
      <point x="-327" y="-769"/>
      <point x="-234" y="-731"/>
      <point x="-186" y="-635" type="curve"/>
      <point x="-182" y="-635" type="line"/>
      <point x="-134" y="-731"/>
      <point x="-41" y="-769"/>
      <point x="79" y="-769" type="curve" smooth="yes"/>
      <point x="296" y="-769"/>
      <point x="412" y="-660"/>
      <point x="412" y="-453" type="curve" smooth="yes"/>
      <point x="412" y="-449" type="line" smooth="yes"/>
      <point x="412" y="-241"/>
      <point x="296" y="-133"/>
      <point x="79" y="-133" type="curve" smooth="yes"/>
      <point x="-41" y="-133"/>
      <point x="-134" y="-168"/>
      <point x="-182" y="-263" type="curve"/>
      <point x="-186" y="-263" type="line"/>
      <point x="-234" y="-168"/>
      <point x="-327" y="-133"/>
    </contour>
    <contour>
      <point x="-414" y="-549" type="curve" smooth="yes"/>
      <point x="-482" y="-549"/>
      <point x="-517" y="-515"/>
      <point x="-517" y="-452" type="curve" smooth="yes"/>
      <point x="-517" y="-448" type="line" smooth="yes"/>
      <point x="-517" y="-386"/>
      <point x="-482" y="-353"/>
      <point x="-414" y="-353" type="curve" smooth="yes"/>
      <point x="-346" y="-353"/>
      <point x="-311" y="-386"/>
      <point x="-311" y="-448" type="curve" smooth="yes"/>
      <point x="-311" y="-452" type="line" smooth="yes"/>
      <point x="-311" y="-515"/>
      <point x="-346" y="-549"/>
    </contour>
    <contour>
      <point x="46" y="-549" type="curve" smooth="yes"/>
      <point x="-22" y="-549"/>
      <point x="-57" y="-515"/>
      <point x="-57" y="-452" type="curve" smooth="yes"/>
      <point x="-57" y="-448" type="line" smooth="yes"/>
      <point x="-57" y="-386"/>
      <point x="-22" y="-353"/>
      <point x="46" y="-353" type="curve" smooth="yes"/>
      <point x="114" y="-353"/>
      <point x="149" y="-386"/>
      <point x="149" y="-448" type="curve" smooth="yes"/>
      <point x="149" y="-452" type="line" smooth="yes"/>
      <point x="149" y="-515"/>
      <point x="114" y="-549"/>
    </contour>
  </outline>
</glyph>
<glyph name="JaNuktasmall1.kn" format="2">
  <outline>
    <component base="Jasmall1.kn"/>
    <contour>
      <point x="-410" y="-837" type="curve" smooth="yes"/>
      <point x="-493" y="-837"/>
      <point x="-541" y="-875"/>
      <point x="-541" y="-944" type="curve" smooth="yes"/>
      <point x="-541" y="-1013"/>
      <point x="-493" y="-1051"/>
      <point x="-410" y="-1051" type="curve" smooth="yes"/>
      <point x="-328" y="-1051"/>
      <point x="-279" y="-1013"/>
      <point x="-279" y="-944" type="curve" smooth="yes"/>
      <point x="-279" y="-875"/>
      <point x="-328" y="-837"/>
    </contour>
    <contour>
      <point x="18" y="-837" type="curve" smooth="yes"/>
      <point x="-65" y="-837"/>
      <point x="-113" y="-875"/>
      <point x="-113" y="-944" type="curve" smooth="yes"/>
      <point x="-113" y="-1013"/>
      <point x="-65" y="-1051"/>
      <point x="18" y="-1051" type="curve" smooth="yes"/>
      <point x="100" y="-1051"/>
      <point x="149" y="-1013"/>
      <point x="149" y="-944" type="curve" smooth="yes"/>
      <point x="149" y="-875"/>
      <point x="100" y="-837"/>
    </contour>
  </outline>
  <guideline angle="90" x="-227" y="0"/>
</glyph>
<glyph name="JamatraAu.kn" format="2">
  <advance width="3124"/>
  <anchor x="1041" y="0" name="nukta"/>
  <outline>
    <contour>
      <point x="1586" y="442" type="curve"/>
      <point x="1586" y="440" type="line"/>
      <point x="1586" y="347"/>
      <point x="1532" y="298"/>
      <point x="1423" y="298" type="curve" smooth="yes"/>
      <point x="1313" y="298"/>
      <point x="1255" y="353"/>
      <point x="1248" y="460" type="curve" smooth="yes"/>
      <point x="1247" y="476" type="line"/>
      <point x="1025" y="476" type="line"/>
      <point x="1046" y="277" type="line" smooth="yes"/>
      <point x="1066" y="75"/>
      <point x="1210" y="-37"/>
      <point x="1482" y="-37" type="curve" smooth="yes"/>
      <point x="1805" y="-37"/>
      <point x="1974" y="107"/>
      <point x="1974" y="369" type="curve" smooth="yes"/>
      <point x="1974" y="373" type="line" smooth="yes"/>
      <point x="1974" y="415"/>
      <point x="1969" y="456"/>
      <point x="1955" y="497" type="curve"/>
      <point x="1578" y="497" type="line"/>
      <point x="1583" y="480"/>
      <point x="1586" y="460"/>
    </contour>
    <contour>
      <point x="605" y="1211" type="curve" smooth="yes"/>
      <point x="280" y="1211"/>
      <point x="101" y="1082"/>
      <point x="101" y="848" type="curve" smooth="yes"/>
      <point x="101" y="841" type="line" smooth="yes"/>
      <point x="101" y="776"/>
      <point x="118" y="724"/>
      <point x="138" y="693" type="curve"/>
      <point x="472" y="693" type="line"/>
      <point x="454" y="721"/>
      <point x="444" y="755"/>
      <point x="444" y="788" type="curve" smooth="yes"/>
      <point x="444" y="791" type="line" smooth="yes"/>
      <point x="444" y="871"/>
      <point x="498" y="911"/>
      <point x="607" y="911" type="curve" smooth="yes"/>
      <point x="701" y="911"/>
      <point x="746" y="882"/>
      <point x="746" y="825" type="curve"/>
      <point x="746" y="823" type="line"/>
      <point x="746" y="773"/>
      <point x="709" y="750"/>
      <point x="579" y="726" type="curve" smooth="yes"/>
      <point x="482" y="708" type="line" smooth="yes"/>
      <point x="194" y="655"/>
      <point x="76" y="553"/>
      <point x="76" y="343" type="curve" smooth="yes"/>
      <point x="76" y="335" type="line" smooth="yes"/>
      <point x="76" y="95"/>
      <point x="255" y="-37"/>
      <point x="578" y="-37" type="curve" smooth="yes"/>
      <point x="862" y="-37"/>
      <point x="1013" y="74"/>
      <point x="1036" y="273" type="curve"/>
      <point x="1057" y="273" type="line"/>
      <point x="1057" y="476" type="line"/>
      <point x="835" y="476" type="line"/>
      <point x="834" y="462" type="line" smooth="yes"/>
      <point x="825" y="340"/>
      <point x="742" y="276"/>
      <point x="589" y="276" type="curve" smooth="yes"/>
      <point x="487" y="276"/>
      <point x="440" y="303"/>
      <point x="440" y="351" type="curve" smooth="yes"/>
      <point x="440" y="355" type="line" smooth="yes"/>
      <point x="440" y="404"/>
      <point x="479" y="427"/>
      <point x="613" y="452" type="curve" smooth="yes"/>
      <point x="710" y="470" type="line" smooth="yes"/>
      <point x="974" y="519"/>
      <point x="1099" y="618"/>
      <point x="1099" y="817" type="curve" smooth="yes"/>
      <point x="1099" y="823" type="line" smooth="yes"/>
      <point x="1099" y="1074"/>
      <point x="925" y="1211"/>
    </contour>
    <contour>
      <point x="1750" y="889" type="line" smooth="yes"/>
      <point x="1935" y="889"/>
      <point x="2047" y="982"/>
      <point x="2047" y="1137" type="curve"/>
      <point x="2047" y="1139" type="line"/>
      <point x="2047" y="1247"/>
      <point x="1992" y="1317"/>
      <point x="1888" y="1343" type="curve"/>
      <point x="1888" y="1382.5" type="line"/>
      <point x="1550" y="1382.5" type="line"/>
      <point x="1550" y="1381.33"/>
      <point x="1550" y="1352.94"/>
      <point x="1550" y="1352" type="curve"/>
      <point x="1630" y="1352"/>
      <point x="1667" y="1323"/>
      <point x="1667" y="1263" type="curve"/>
      <point x="1667" y="1261" type="line"/>
      <point x="1667" y="1201"/>
      <point x="1630" y="1174"/>
      <point x="1550" y="1174" type="curve" smooth="yes"/>
      <point x="1478" y="1174" type="line"/>
      <point x="1478" y="889" type="line"/>
    </contour>
    <contour>
      <point x="2715" y="924.136" type="line"/>
      <point x="2715" y="901" type="line" smooth="yes"/>
      <point x="2715" y="776"/>
      <point x="2665" y="712"/>
      <point x="2570" y="712" type="curve" smooth="yes"/>
      <point x="2494" y="712"/>
      <point x="2454" y="744"/>
      <point x="2454" y="799" type="curve"/>
      <point x="2454" y="801" type="line"/>
      <point x="2454" y="859"/>
      <point x="2493" y="892"/>
      <point x="2570" y="892" type="curve" smooth="yes"/>
      <point x="2644" y="892"/>
      <point x="2708" y="862"/>
      <point x="2757" y="804" type="curve"/>
      <point x="2767" y="964" type="line"/>
      <point x="2704" y="964" type="line"/>
      <point x="2675" y="1085"/>
      <point x="2576" y="1149"/>
      <point x="2432" y="1149" type="curve" smooth="yes"/>
      <point x="2219" y="1149"/>
      <point x="2103" y="1019"/>
      <point x="2103" y="806" type="curve"/>
      <point x="2103" y="804" type="line"/>
      <point x="2103" y="555"/>
      <point x="2265" y="420"/>
      <point x="2569" y="420" type="curve" smooth="yes"/>
      <point x="2909" y="420"/>
      <point x="3084" y="605"/>
      <point x="3084" y="953" type="curve" smooth="yes"/>
      <point x="3084" y="957" type="line"/>
    </contour>
    <contour>
      <point x="1343" y="1635" type="line"/>
      <point x="1343" y="1352" type="line"/>
      <point x="2291" y="1352" type="line" smooth="yes"/>
      <point x="2567" y="1352"/>
      <point x="2715" y="1217"/>
      <point x="2715" y="966" type="curve" smooth="yes"/>
      <point x="2715" y="920" type="line"/>
      <point x="3084" y="956" type="line"/>
      <point x="3084" y="961" type="line" smooth="yes"/>
      <point x="3084" y="1391"/>
      <point x="2822" y="1635"/>
      <point x="2301" y="1635" type="curve" smooth="yes"/>
    </contour>
    <contour>
      <point x="1249" y="1174" type="line"/>
      <point x="1249" y="889" type="line"/>
      <point x="1435" y="889" type="line" smooth="yes"/>
      <point x="1505" y="889"/>
      <point x="1532" y="873"/>
      <point x="1532" y="841" type="curve"/>
      <point x="1532" y="839" type="line"/>
      <point x="1532" y="804"/>
      <point x="1497" y="787"/>
      <point x="1421" y="787" type="curve" smooth="yes"/>
      <point x="1251" y="787"/>
      <point x="1147.85" y="836.224"/>
      <point x="1082" y="935" type="curve" smooth="yes"/>
      <point x="1080" y="938" type="line"/>
      <point x="954" y="875" type="line"/>
      <point x="954" y="873" type="line"/>
      <point x="954" y="648"/>
      <point x="1147" y="495"/>
      <point x="1498" y="495" type="curve" smooth="yes"/>
      <point x="1741" y="495"/>
      <point x="1901" y="573"/>
      <point x="1901" y="725" type="curve"/>
      <point x="1901" y="727" type="line"/>
      <point x="1901" y="819"/>
      <point x="1846" y="869"/>
      <point x="1742" y="879" type="curve"/>
      <point x="1742" y="960" type="line"/>
      <point x="1617" y="1174" type="line"/>
    </contour>
  </outline>
  <guideline angle="90" x="338" y="0"/>
  <guideline angle="0" x="0" y="2043"/>
  <guideline angle="0" x="0" y="1525"/>
</glyph>
<glyph name="JamatraI.kn" format="2">
  <advance width="2062"/>
  <anchor x="1041" y="0" name="nukta"/>
  <outline>
    <contour>
      <point x="1472" y="1526" type="curve" smooth="yes"/>
      <point x="1181" y="1526"/>
      <point x="1028" y="1408"/>
      <point x="1028" y="1191" type="curve"/>
      <point x="1028" y="1189" type="line"/>
      <point x="1028" y="1003"/>
      <point x="1159" y="896"/>
      <point x="1376" y="896" type="curve" smooth="yes"/>
      <point x="1515" y="896"/>
      <point x="1598" y="948"/>
      <point x="1625" y="1042" type="curve"/>
      <point x="1661" y="1042" type="line"/>
      <point x="1644" y="1186" type="line"/>
      <point x="1600" y="1138"/>
      <point x="1540" y="1115"/>
      <point x="1474" y="1115" type="curve" smooth="yes"/>
      <point x="1402" y="1115"/>
      <point x="1365" y="1138"/>
      <point x="1365" y="1183" type="curve"/>
      <point x="1365" y="1185" type="line"/>
      <point x="1365" y="1233"/>
      <point x="1405" y="1258"/>
      <point x="1474" y="1258" type="curve" smooth="yes"/>
      <point x="1578" y="1258"/>
      <point x="1634" y="1197"/>
      <point x="1634" y="1087" type="curve" smooth="yes"/>
      <point x="1634" y="1038" type="line" smooth="yes"/>
      <point x="1634" y="893"/>
      <point x="1547" y="814"/>
      <point x="1365" y="814" type="curve" smooth="yes"/>
      <point x="1220" y="814"/>
      <point x="1133" y="854"/>
      <point x="1076" y="935" type="curve"/>
      <point x="1076" y="935" type="line"/>
      <point x="948" y="874" type="line"/>
      <point x="948" y="873" type="line"/>
      <point x="948" y="671"/>
      <point x="1122" y="533"/>
      <point x="1442" y="533" type="curve" smooth="yes"/>
      <point x="1792" y="533"/>
      <point x="1987" y="711"/>
      <point x="1987" y="1035" type="curve" smooth="yes"/>
      <point x="1987" y="1038" type="line" smooth="yes"/>
      <point x="1987" y="1351"/>
      <point x="1799" y="1526"/>
    </contour>
    <contour>
      <point x="1586" y="442" type="curve"/>
      <point x="1586" y="440" type="line"/>
      <point x="1586" y="347"/>
      <point x="1532" y="298"/>
      <point x="1423" y="298" type="curve" smooth="yes"/>
      <point x="1313" y="298"/>
      <point x="1255" y="353"/>
      <point x="1248" y="460" type="curve" smooth="yes"/>
      <point x="1247" y="476" type="line"/>
      <point x="1025" y="476" type="line"/>
      <point x="1046" y="277" type="line" smooth="yes"/>
      <point x="1066" y="75"/>
      <point x="1210" y="-37"/>
      <point x="1482" y="-37" type="curve" smooth="yes"/>
      <point x="1805" y="-37"/>
      <point x="1974" y="107"/>
      <point x="1974" y="369" type="curve" smooth="yes"/>
      <point x="1974" y="373" type="line" smooth="yes"/>
      <point x="1974" y="415"/>
      <point x="1969" y="456"/>
      <point x="1955" y="497" type="curve"/>
      <point x="1578" y="497" type="line"/>
      <point x="1583" y="480"/>
      <point x="1586" y="460"/>
    </contour>
    <contour>
      <point x="605" y="1211" type="curve" smooth="yes"/>
      <point x="280" y="1211"/>
      <point x="101" y="1082"/>
      <point x="101" y="848" type="curve" smooth="yes"/>
      <point x="101" y="841" type="line" smooth="yes"/>
      <point x="101" y="776"/>
      <point x="118" y="724"/>
      <point x="138" y="693" type="curve"/>
      <point x="472" y="693" type="line"/>
      <point x="454" y="721"/>
      <point x="444" y="755"/>
      <point x="444" y="788" type="curve" smooth="yes"/>
      <point x="444" y="791" type="line" smooth="yes"/>
      <point x="444" y="871"/>
      <point x="498" y="911"/>
      <point x="607" y="911" type="curve" smooth="yes"/>
      <point x="701" y="911"/>
      <point x="746" y="882"/>
      <point x="746" y="825" type="curve"/>
      <point x="746" y="823" type="line"/>
      <point x="746" y="773"/>
      <point x="709" y="750"/>
      <point x="579" y="726" type="curve" smooth="yes"/>
      <point x="482" y="708" type="line" smooth="yes"/>
      <point x="194" y="655"/>
      <point x="76" y="553"/>
      <point x="76" y="343" type="curve" smooth="yes"/>
      <point x="76" y="335" type="line" smooth="yes"/>
      <point x="76" y="95"/>
      <point x="255" y="-37"/>
      <point x="578" y="-37" type="curve" smooth="yes"/>
      <point x="862" y="-37"/>
      <point x="1013" y="74"/>
      <point x="1036" y="273" type="curve"/>
      <point x="1057" y="273" type="line"/>
      <point x="1057" y="476" type="line"/>
      <point x="835" y="476" type="line"/>
      <point x="834" y="462" type="line" smooth="yes"/>
      <point x="825" y="340"/>
      <point x="742" y="276"/>
      <point x="589" y="276" type="curve" smooth="yes"/>
      <point x="487" y="276"/>
      <point x="440" y="303"/>
      <point x="440" y="351" type="curve" smooth="yes"/>
      <point x="440" y="355" type="line" smooth="yes"/>
      <point x="440" y="404"/>
      <point x="479" y="427"/>
      <point x="613" y="452" type="curve" smooth="yes"/>
      <point x="710" y="470" type="line" smooth="yes"/>
      <point x="974" y="519"/>
      <point x="1099" y="618"/>
      <point x="1099" y="817" type="curve" smooth="yes"/>
      <point x="1099" y="823" type="line" smooth="yes"/>
      <point x="1099" y="1074"/>
      <point x="925" y="1211"/>
    </contour>
  </outline>
  <guideline angle="90" x="338" y="0"/>
  <guideline angle="0" x="0" y="2043"/>
  <guideline angle="0" x="0" y="1525"/>
</glyph>
<glyph name="JhaHalant.kn" format="2">
  <advance width="4387"/>
  <outline>
    <component base="Ra.kn"/>
    <component base="matraU.kn" xOffset="1726"/>
    <component base="Halant.kn" xOffset="3458"/>
    <contour>
      <point x="2995" y="561" type="curve" smooth="yes"/>
      <point x="2995" y="557" type="line" smooth="yes"/>
      <point x="2995" y="389.353"/>
      <point x="2904" y="298"/>
      <point x="2739" y="298" type="curve" smooth="yes"/>
      <point x="2589" y="298"/>
      <point x="2501" y="377.387"/>
      <point x="2501" y="503" type="curve"/>
      <point x="2501" y="504" type="line"/>
      <point x="2379" y="492" type="line"/>
      <point x="2379" y="361" type="line" smooth="yes"/>
      <point x="2379" y="111.373"/>
      <point x="2546" y="-37"/>
      <point x="2829" y="-37" type="curve" smooth="yes"/>
      <point x="3189" y="-37"/>
      <point x="3385" y="146.349"/>
      <point x="3385" y="488" type="curve" smooth="yes"/>
      <point x="3385" y="493" type="line" smooth="yes"/>
      <point x="3385" y="707"/>
      <point x="3290" y="840"/>
      <point x="3099" y="881" type="curve"/>
      <point x="3099" y="911" type="line"/>
      <point x="2632" y="911" type="line"/>
      <point x="2632" y="889" type="line"/>
      <point x="2877" y="889"/>
      <point x="2995" y="780"/>
    </contour>
    <contour>
      <point x="2963" y="889" type="line"/>
      <point x="2963" y="1174" type="line"/>
      <point x="2606" y="1174" type="line"/>
      <point x="2606" y="889" type="line"/>
    </contour>
    <contour>
      <point x="2401" y="-462" type="curve" smooth="yes"/>
      <point x="2537" y="-462"/>
      <point x="2608" y="-397"/>
      <point x="2608" y="-272" type="curve" smooth="yes"/>
      <point x="2608" y="-264" type="line" smooth="yes"/>
      <point x="2608" y="-153"/>
      <point x="2551" y="-65"/>
      <point x="2401" y="46" type="curve"/>
      <point x="2251" y="-65"/>
      <point x="2194" y="-153"/>
      <point x="2194" y="-264" type="curve" smooth="yes"/>
      <point x="2194" y="-272" type="line" smooth="yes"/>
      <point x="2194" y="-397"/>
      <point x="2265" y="-462"/>
    </contour>
    <contour>
      <point x="1499" y="490" type="line"/>
      <point x="1621" y="503" type="line"/>
      <point x="1621" y="508" type="line"/>
      <point x="1499" y="508" type="line"/>
    </contour>
  </outline>
  <guideline angle="90" x="3385" y="0"/>
  <guideline angle="90" x="261" y="0"/>
  <guideline angle="90" x="425" y="0"/>
  <guideline angle="90" x="2194" y="0"/>
  <guideline angle="90" x="2194" y="0"/>
</glyph>
<glyph name="JhamatraE.kn" format="2">
  <advance width="3478"/>
  <outline>
    <component base="matraU.kn" xOffset="2606"/>
    <component base="matraU.kn" xOffset="1726"/>
    <component base="RamatraE.kn"/>
    <contour>
      <point x="2401" y="-462" type="curve" smooth="yes"/>
      <point x="2537" y="-462"/>
      <point x="2608" y="-397"/>
      <point x="2608" y="-272" type="curve" smooth="yes"/>
      <point x="2608" y="-264" type="line" smooth="yes"/>
      <point x="2608" y="-153"/>
      <point x="2551" y="-65"/>
      <point x="2401" y="46" type="curve"/>
      <point x="2251" y="-65"/>
      <point x="2194" y="-153"/>
      <point x="2194" y="-264" type="curve" smooth="yes"/>
      <point x="2194" y="-272" type="line" smooth="yes"/>
      <point x="2194" y="-397"/>
      <point x="2265" y="-462"/>
    </contour>
    <contour>
      <point x="1499" y="488" type="line"/>
      <point x="1621" y="489" type="line"/>
      <point x="1621" y="508" type="line"/>
      <point x="1499" y="508" type="line"/>
    </contour>
  </outline>
  <guideline angle="90" x="1669" y="0"/>
  <guideline angle="90" x="2547" y="0"/>
  <guideline angle="90" x="2194" y="0"/>
  <guideline angle="90" x="2194" y="0"/>
  <guideline angle="90" x="2194" y="0"/>
</glyph>
<glyph name="JhamatraUu.kn" format="2">
  <advance width="4326"/>
  <outline>
    <component base="Ra.kn"/>
    <component base="matraUu.kn" xOffset="2607" yOffset="-2"/>
    <component base="matraU.kn" xOffset="1726"/>
    <contour>
      <point x="2372" y="-462" type="curve" smooth="yes"/>
      <point x="2508" y="-462"/>
      <point x="2579" y="-397"/>
      <point x="2579" y="-272" type="curve" smooth="yes"/>
      <point x="2579" y="-264" type="line" smooth="yes"/>
      <point x="2579" y="-153"/>
      <point x="2522" y="-65"/>
      <point x="2372" y="46" type="curve"/>
      <point x="2222" y="-65"/>
      <point x="2165" y="-153"/>
      <point x="2165" y="-264" type="curve" smooth="yes"/>
      <point x="2165" y="-272" type="line" smooth="yes"/>
      <point x="2165" y="-397"/>
      <point x="2236" y="-462"/>
    </contour>
    <contour>
      <point x="1499" y="488" type="line"/>
      <point x="1621" y="489" type="line"/>
      <point x="1621" y="508" type="line"/>
      <point x="1499" y="508" type="line"/>
    </contour>
  </outline>
  <guideline angle="90" x="2165" y="0"/>
  <guideline angle="90" x="2194" y="0"/>
</glyph>
<glyph name="Jhasmall1.kn" format="2">
  <outline>
    <contour>
      <point x="80" y="-112" type="curve" smooth="yes"/>
      <point x="63" y="-112"/>
      <point x="48" y="-113"/>
      <point x="34" y="-115" type="curve"/>
      <point x="34" y="-329" type="line"/>
      <point x="39" y="-329"/>
      <point x="42" y="-329"/>
      <point x="47" y="-329" type="curve" smooth="yes"/>
      <point x="122" y="-329"/>
      <point x="157" y="-370"/>
      <point x="157" y="-455" type="curve" smooth="yes"/>
      <point x="157" y="-461" type="line" smooth="yes"/>
      <point x="157" y="-536"/>
      <point x="126" y="-577"/>
      <point x="65" y="-577" type="curve" smooth="yes"/>
      <point x="8" y="-577"/>
      <point x="-24" y="-542"/>
      <point x="-24" y="-487" type="curve" smooth="yes"/>
      <point x="-24" y="-480" type="line"/>
      <point x="-106" y="-480" type="line"/>
      <point x="-104" y="-624" type="line"/>
      <point x="-80" y="-733"/>
      <point x="-8" y="-797"/>
      <point x="133" y="-797" type="curve" smooth="yes"/>
      <point x="322" y="-797"/>
      <point x="419" y="-674"/>
      <point x="419" y="-469" type="curve" smooth="yes"/>
      <point x="419" y="-461" type="line" smooth="yes"/>
      <point x="419" y="-233"/>
      <point x="302" y="-112"/>
    </contour>
    <contour>
      <point x="521" y="-112" type="curve" smooth="yes"/>
      <point x="504" y="-112"/>
      <point x="489" y="-113"/>
      <point x="475" y="-115" type="curve"/>
      <point x="475" y="-329" type="line"/>
      <point x="480" y="-329"/>
      <point x="483" y="-329"/>
      <point x="488" y="-329" type="curve" smooth="yes"/>
      <point x="563" y="-329"/>
      <point x="598" y="-370"/>
      <point x="598" y="-455" type="curve" smooth="yes"/>
      <point x="598" y="-461" type="line" smooth="yes"/>
      <point x="598" y="-536"/>
      <point x="567" y="-577"/>
      <point x="506" y="-577" type="curve" smooth="yes"/>
      <point x="449" y="-577"/>
      <point x="417" y="-542"/>
      <point x="417" y="-487" type="curve" smooth="yes"/>
      <point x="417" y="-480" type="line"/>
      <point x="335" y="-480" type="line"/>
      <point x="337" y="-614" type="line"/>
      <point x="361" y="-723"/>
      <point x="433" y="-797"/>
      <point x="574" y="-797" type="curve" smooth="yes"/>
      <point x="763" y="-797"/>
      <point x="860" y="-684"/>
      <point x="860" y="-469" type="curve" smooth="yes"/>
      <point x="860" y="-461" type="line" smooth="yes"/>
      <point x="860" y="-233"/>
      <point x="743" y="-112"/>
    </contour>
    <contour>
      <point x="-405" y="-94" type="curve" smooth="yes"/>
      <point x="-655" y="-94"/>
      <point x="-790" y="-214"/>
      <point x="-790" y="-445" type="curve" smooth="yes"/>
      <point x="-790" y="-449" type="line" smooth="yes"/>
      <point x="-790" y="-680"/>
      <point x="-655" y="-800"/>
      <point x="-405" y="-800" type="curve" smooth="yes"/>
      <point x="-155" y="-800"/>
      <point x="-20" y="-670"/>
      <point x="-20" y="-449" type="curve" smooth="yes"/>
      <point x="-20" y="-445" type="line" smooth="yes"/>
      <point x="-20" y="-214"/>
      <point x="-155" y="-94"/>
    </contour>
    <contour>
      <point x="-404" y="-580" type="curve" smooth="yes"/>
      <point x="-485" y="-580"/>
      <point x="-527" y="-537"/>
      <point x="-527" y="-448" type="curve" smooth="yes"/>
      <point x="-527" y="-444" type="line" smooth="yes"/>
      <point x="-527" y="-357"/>
      <point x="-485" y="-314"/>
      <point x="-404" y="-314" type="curve" smooth="yes"/>
      <point x="-323" y="-314"/>
      <point x="-281" y="-357"/>
      <point x="-281" y="-444" type="curve" smooth="yes"/>
      <point x="-281" y="-448" type="line" smooth="yes"/>
      <point x="-281" y="-537"/>
      <point x="-323" y="-580"/>
    </contour>
    <contour>
      <point x="360" y="-746" type="curve"/>
      <point x="259" y="-814"/>
      <point x="219" y="-871"/>
      <point x="219" y="-945" type="curve" smooth="yes"/>
      <point x="219" y="-948" type="line" smooth="yes"/>
      <point x="219" y="-1020"/>
      <point x="266" y="-1059"/>
      <point x="360" y="-1059" type="curve" smooth="yes"/>
      <point x="450" y="-1059"/>
      <point x="500" y="-1020"/>
      <point x="500" y="-948" type="curve" smooth="yes"/>
      <point x="500" y="-945" type="line" smooth="yes"/>
      <point x="500" y="-871"/>
      <point x="461" y="-814"/>
    </contour>
  </outline>
  <guideline angle="90" x="434" y="0"/>
  <guideline angle="0" x="0" y="-446"/>
</glyph>
<glyph name="KamatraI.kn" format="2">
  <advance width="1567"/>
  <outline>
    <contour>
      <point x="82" y="766" type="line"/>
      <point x="82" y="482" type="line"/>
      <point x="391" y="496" type="line"/>
      <point x="387" y="564" type="line"/>
      <point x="1176" y="564" type="line"/>
      <point x="1175" y="496" type="line"/>
      <point x="1484" y="482" type="line"/>
      <point x="1484" y="766" type="line"/>
    </contour>
    <contour>
      <point x="784" y="523" type="curve" smooth="yes"/>
      <point x="962" y="523"/>
      <point x="1049" y="479"/>
      <point x="1049" y="390" type="curve" smooth="yes"/>
      <point x="1049" y="387" type="line" smooth="yes"/>
      <point x="1049" y="298"/>
      <point x="962" y="254"/>
      <point x="784" y="254" type="curve" smooth="yes"/>
      <point x="606" y="254"/>
      <point x="519" y="298"/>
      <point x="519" y="387" type="curve" smooth="yes"/>
      <point x="519" y="390" type="line" smooth="yes"/>
      <point x="519" y="479"/>
      <point x="606" y="523"/>
    </contour>
    <contour>
      <point x="353" y="584" type="line"/>
      <point x="353" y="484" type="line"/>
      <point x="220" y="465"/>
      <point x="144" y="400"/>
      <point x="144" y="269" type="curve" smooth="yes"/>
      <point x="144" y="260" type="line" smooth="yes"/>
      <point x="144" y="54"/>
      <point x="363" y="-56"/>
      <point x="784" y="-56" type="curve" smooth="yes"/>
      <point x="1205" y="-56"/>
      <point x="1424" y="54"/>
      <point x="1424" y="260" type="curve" smooth="yes"/>
      <point x="1424" y="269" type="line" smooth="yes"/>
      <point x="1424" y="400"/>
      <point x="1348" y="465"/>
      <point x="1215" y="484" type="curve"/>
      <point x="1215" y="584" type="line"/>
    </contour>
    <contour>
      <point x="751" y="1455" type="curve" smooth="yes"/>
      <point x="473" y="1455"/>
      <point x="325" y="1341.24"/>
      <point x="325" y="1132" type="curve"/>
      <point x="325" y="1130" type="line"/>
      <point x="325" y="955"/>
      <point x="448" y="854"/>
      <point x="653" y="854" type="curve" smooth="yes"/>
      <point x="792" y="854"/>
      <point x="875" y="904.815"/>
      <point x="902" y="994" type="curve"/>
      <point x="938" y="994" type="line"/>
      <point x="921" y="1132" type="line"/>
      <point x="877" y="1088"/>
      <point x="817" y="1066"/>
      <point x="751" y="1066" type="curve" smooth="yes"/>
      <point x="683" y="1066"/>
      <point x="648" y="1088"/>
      <point x="648" y="1129" type="curve"/>
      <point x="648" y="1131" type="line"/>
      <point x="648" y="1175"/>
      <point x="686" y="1199"/>
      <point x="751" y="1199" type="curve" smooth="yes"/>
      <point x="855" y="1199"/>
      <point x="911" y="1139"/>
      <point x="911" y="1033" type="curve" smooth="yes"/>
      <point x="911" y="990" type="line" smooth="yes"/>
      <point x="911" y="843"/>
      <point x="817" y="766"/>
      <point x="642" y="766" type="curve"/>
      <point x="1074" y="671" type="line"/>
      <point x="1074" y="776" type="line"/>
      <point x="1165" y="811"/>
      <point x="1234" y="886"/>
      <point x="1234" y="1051" type="curve" smooth="yes"/>
      <point x="1234" y="1054" type="line" smooth="yes"/>
      <point x="1234" y="1307"/>
      <point x="1059" y="1455"/>
    </contour>
  </outline>
  <guideline angle="269.427" x="774" y="120"/>
</glyph>
<glyph name="LamatraAa.kn" format="2">
  <advance width="3110"/>
  <outline>
    <component base="matraAa.kn" xOffset="1353"/>
    <contour>
      <point x="994" y="-39" type="curve" smooth="yes"/>
      <point x="1583" y="-39"/>
      <point x="1890" y="162"/>
      <point x="1890" y="558" type="curve" smooth="yes"/>
      <point x="1890" y="563" type="line" smooth="yes"/>
      <point x="1890" y="734.304"/>
      <point x="1816.66" y="842.966"/>
      <point x="1670" y="879.647" type="curve"/>
      <point x="1670" y="911" type="line"/>
      <point x="1203" y="911" type="line"/>
      <point x="1203" y="889" type="line"/>
      <point x="1404" y="889"/>
      <point x="1500" y="802"/>
      <point x="1500" y="628" type="curve" smooth="yes"/>
      <point x="1500" y="624" type="line" smooth="yes"/>
      <point x="1500" y="409"/>
      <point x="1342" y="291"/>
      <point x="994" y="291" type="curve" smooth="yes"/>
      <point x="643" y="291"/>
      <point x="454" y="408"/>
      <point x="454" y="636" type="curve" smooth="yes"/>
      <point x="454" y="683.6" type="line"/>
      <point x="74" y="661.65" type="line"/>
      <point x="74" y="658" type="line" smooth="yes"/>
      <point x="74" y="198"/>
      <point x="393" y="-39"/>
    </contour>
    <contour>
      <point x="1534" y="889" type="line"/>
      <point x="1534" y="1174" type="line"/>
      <point x="1176" y="1174" type="line"/>
      <point x="1176" y="889" type="line"/>
    </contour>
    <contour>
      <point x="454" y="679.554" type="line"/>
      <point x="454" y="698" type="line" smooth="yes"/>
      <point x="454" y="828"/>
      <point x="513" y="901"/>
      <point x="625" y="901" type="curve" smooth="yes"/>
      <point x="704" y="901"/>
      <point x="748" y="865"/>
      <point x="748" y="797" type="curve"/>
      <point x="748" y="795" type="line"/>
      <point x="748" y="733"/>
      <point x="707" y="698"/>
      <point x="625" y="698" type="curve" smooth="yes"/>
      <point x="541" y="698"/>
      <point x="468" y="728"/>
      <point x="411" y="787" type="curve"/>
      <point x="401" y="635" type="line"/>
      <point x="462" y="635" type="line"/>
      <point x="494" y="511"/>
      <point x="595" y="444"/>
      <point x="756" y="444" type="curve" smooth="yes"/>
      <point x="973" y="444"/>
      <point x="1101" y="576"/>
      <point x="1101" y="801" type="curve"/>
      <point x="1101" y="803" type="line"/>
      <point x="1101" y="1069"/>
      <point x="935" y="1211"/>
      <point x="623" y="1211" type="curve" smooth="yes"/>
      <point x="273" y="1211"/>
      <point x="74" y="1013"/>
      <point x="74" y="664" type="curve" smooth="yes"/>
      <point x="74" y="661.236" type="line"/>
    </contour>
  </outline>
</glyph>
<glyph name="LamatraI.kn.1" format="2">
  <advance width="2006"/>
  <outline>
    <contour>
      <point x="454" y="679.554" type="line"/>
      <point x="454" y="698" type="line" smooth="yes"/>
      <point x="454" y="828"/>
      <point x="513" y="901"/>
      <point x="625" y="901" type="curve" smooth="yes"/>
      <point x="704" y="901"/>
      <point x="748" y="865"/>
      <point x="748" y="797" type="curve"/>
      <point x="748" y="795" type="line"/>
      <point x="748" y="733"/>
      <point x="707" y="698"/>
      <point x="625" y="698" type="curve" smooth="yes"/>
      <point x="541" y="698"/>
      <point x="468" y="728"/>
      <point x="411" y="787" type="curve"/>
      <point x="401" y="635" type="line"/>
      <point x="462" y="635" type="line"/>
      <point x="494" y="511"/>
      <point x="595" y="444"/>
      <point x="756" y="444" type="curve" smooth="yes"/>
      <point x="973" y="444"/>
      <point x="1101" y="576"/>
      <point x="1101" y="801" type="curve"/>
      <point x="1101" y="803" type="line"/>
      <point x="1101" y="1069"/>
      <point x="935" y="1211"/>
      <point x="623" y="1211" type="curve" smooth="yes"/>
      <point x="273" y="1211"/>
      <point x="74" y="1013"/>
      <point x="74" y="664" type="curve" smooth="yes"/>
      <point x="74" y="661.236" type="line"/>
    </contour>
    <contour>
      <point x="1536" y="751" type="line" smooth="yes"/>
      <point x="1536" y="455"/>
      <point x="1369" y="291"/>
      <point x="1002" y="291" type="curve" smooth="yes"/>
      <point x="646.45" y="291"/>
      <point x="454" y="408"/>
      <point x="454" y="636" type="curve" smooth="yes"/>
      <point x="454" y="683.588" type="line"/>
      <point x="74" y="661.65" type="line"/>
      <point x="74" y="658" type="line" smooth="yes"/>
      <point x="74" y="198"/>
      <point x="396.427" y="-39"/>
      <point x="1002" y="-39" type="curve" smooth="yes"/>
      <point x="1608" y="-39"/>
      <point x="1926" y="226"/>
      <point x="1926" y="751" type="curve" smooth="yes"/>
      <point x="1926" y="758" type="line" smooth="yes"/>
      <point x="1926" y="1122.59"/>
      <point x="1787.97" y="1435"/>
      <point x="1342" y="1435" type="curve" smooth="yes"/>
      <point x="1046" y="1435"/>
      <point x="890" y="1305"/>
      <point x="890" y="1066" type="curve"/>
      <point x="890" y="1064" type="line"/>
      <point x="890" y="853"/>
      <point x="1030.54" y="731"/>
      <point x="1263" y="731" type="curve" smooth="yes"/>
      <point x="1432.81" y="731"/>
      <point x="1533.81" y="800.793"/>
      <point x="1566" y="925" type="curve"/>
      <point x="1512" y="1086" type="line"/>
      <point x="1471.93" y="1017.21"/>
      <point x="1413.73" y="982"/>
      <point x="1342" y="982" type="curve" smooth="yes"/>
      <point x="1267" y="982"/>
      <point x="1229" y="1008"/>
      <point x="1229" y="1058" type="curve"/>
      <point x="1229" y="1060" type="line"/>
      <point x="1229" y="1116"/>
      <point x="1270" y="1145"/>
      <point x="1340" y="1145" type="curve" smooth="yes"/>
      <point x="1521.81" y="1145"/>
      <point x="1536" y="923.401"/>
      <point x="1536" y="757" type="curve" smooth="yes"/>
    </contour>
  </outline>
</glyph>
<glyph name="LamatraU.kn" format="2">
  <advance width="2857"/>
  <outline>
    <component base="La.kn"/>
    <contour>
      <point x="2204" y="1184" type="curve" smooth="yes"/>
      <point x="2154" y="1184"/>
      <point x="2108" y="1180"/>
      <point x="2058" y="1172" type="curve"/>
      <point x="2058" y="841" type="line"/>
      <point x="2076" y="846"/>
      <point x="2101" y="848"/>
      <point x="2132" y="848" type="curve" smooth="yes"/>
      <point x="2293" y="848"/>
      <point x="2374" y="757"/>
      <point x="2374" y="567" type="curve" smooth="yes"/>
      <point x="2374" y="560" type="line" smooth="yes"/>
      <point x="2374" y="390"/>
      <point x="2283" y="298"/>
      <point x="2118" y="298" type="curve" smooth="yes"/>
      <point x="1968" y="298"/>
      <point x="1885" y="377"/>
      <point x="1880" y="492" type="curve"/>
      <point x="1880" y="504" type="line"/>
      <point x="1748" y="504" type="line"/>
      <point x="1748" y="361" type="line" smooth="yes"/>
      <point x="1748" y="111"/>
      <point x="1917" y="-37"/>
      <point x="2203" y="-37" type="curve" smooth="yes"/>
      <point x="2566" y="-37"/>
      <point x="2764" y="170"/>
      <point x="2764" y="560" type="curve" smooth="yes"/>
      <point x="2764" y="567" type="line" smooth="yes"/>
      <point x="2764" y="968"/>
      <point x="2567" y="1184"/>
    </contour>
  </outline>
  <guideline angle="90" x="1926" y="0"/>
  <guideline angle="0" x="0" y="1184"/>
</glyph>
<glyph name="LllaObsoleteHalant.kn" format="2">
  <advance width="3830"/>
  <outline>
    <component base="LllaObsolete.kn"/>
    <component base="Halant.kn" xOffset="2901"/>
    <contour>
      <point x="2799" y="677" type="line"/>
      <point x="2799" y="799"/>
      <point x="2737" y="867"/>
      <point x="2620" y="880" type="curve"/>
      <point x="2620" y="960" type="line"/>
      <point x="2303" y="960" type="line"/>
      <point x="2273" y="889" type="line"/>
      <point x="2386" y="889"/>
      <point x="2430" y="856"/>
      <point x="2430" y="790" type="curve"/>
      <point x="2430" y="788" type="line"/>
      <point x="2430" y="726"/>
      <point x="2390" y="694"/>
      <point x="2305" y="694" type="curve" smooth="yes"/>
      <point x="2243" y="694"/>
      <point x="2184" y="713"/>
      <point x="2151" y="743" type="curve"/>
      <point x="1999" y="568" type="line"/>
      <point x="2074" y="436"/>
      <point x="2207" y="365"/>
      <point x="2391" y="365" type="curve" smooth="yes"/>
      <point x="2634" y="365"/>
      <point x="2799" y="471"/>
      <point x="2799" y="675" type="curve"/>
    </contour>
    <contour>
      <point x="2535" y="889" type="line"/>
      <point x="2535" y="1174" type="line"/>
      <point x="2227" y="1174" type="line"/>
      <point x="2227" y="889" type="line"/>
    </contour>
  </outline>
</glyph>
<glyph name="MamatraAa.kn" format="2">
  <advance width="4069"/>
  <outline>
    <component base="matraAa.kn" xOffset="2312"/>
    <component base="Va.kn"/>
    <contour>
      <point x="2447" y="561" type="curve" smooth="yes"/>
      <point x="2447" y="557" type="line" smooth="yes"/>
      <point x="2447" y="389.353"/>
      <point x="2356" y="298"/>
      <point x="2191" y="298" type="curve" smooth="yes"/>
      <point x="2041" y="298"/>
      <point x="1953" y="377.387"/>
      <point x="1953" y="503" type="curve"/>
      <point x="1953" y="504" type="line"/>
      <point x="1831" y="492" type="line"/>
      <point x="1831" y="361" type="line" smooth="yes"/>
      <point x="1831" y="111.373"/>
      <point x="1998" y="-37"/>
      <point x="2281" y="-37" type="curve" smooth="yes"/>
      <point x="2641" y="-37"/>
      <point x="2837" y="146.349"/>
      <point x="2837" y="488" type="curve" smooth="yes"/>
      <point x="2837" y="493" type="line" smooth="yes"/>
      <point x="2837" y="707"/>
      <point x="2742" y="840"/>
      <point x="2551" y="881" type="curve"/>
      <point x="2551" y="911" type="line"/>
      <point x="2084" y="911" type="line"/>
      <point x="2084" y="889" type="line"/>
      <point x="2329" y="889"/>
      <point x="2447" y="780"/>
    </contour>
    <contour>
      <point x="2415" y="889" type="line"/>
      <point x="2415" y="1174" type="line"/>
      <point x="2058" y="1174" type="line"/>
      <point x="2058" y="889" type="line"/>
    </contour>
  </outline>
  <guideline angle="0" x="0" y="275"/>
  <guideline angle="90" x="2838" y="0"/>
</glyph>
<glyph name="NgamatraAa.kn" format="2">
  <advance width="3721"/>
  <outline>
    <component base="matraAa.kn" xOffset="1964"/>
    <contour>
      <point x="1923" y="812" type="line" smooth="yes"/>
      <point x="1923" y="1060"/>
      <point x="1758" y="1211"/>
      <point x="1451" y="1211" type="curve" smooth="yes"/>
      <point x="1143" y="1211"/>
      <point x="1008" y="1090"/>
      <point x="974" y="913" type="curve"/>
      <point x="1096" y="773" type="line"/>
      <point x="1126" y="863"/>
      <point x="1210" y="909"/>
      <point x="1340" y="909" type="curve" smooth="yes"/>
      <point x="1500" y="909"/>
      <point x="1579" y="845"/>
      <point x="1579" y="716" type="curve" smooth="yes"/>
      <point x="1579" y="638" type="line"/>
      <point x="1684" y="512"/>
      <point x="1870" y="445"/>
      <point x="2128" y="445" type="curve" smooth="yes"/>
      <point x="2395" y="445"/>
      <point x="2576" y="534"/>
      <point x="2576" y="701" type="curve"/>
      <point x="2576" y="703" type="line"/>
      <point x="2576" y="809"/>
      <point x="2517" y="868"/>
      <point x="2407" y="880" type="curve"/>
      <point x="2407" y="960" type="line"/>
      <point x="2090" y="960" type="line"/>
      <point x="2060" y="889" type="line"/>
      <point x="2166" y="889"/>
      <point x="2207" y="865"/>
      <point x="2207" y="816" type="curve"/>
      <point x="2207" y="814" type="line"/>
      <point x="2207" y="768"/>
      <point x="2167" y="744"/>
      <point x="2082" y="744" type="curve" smooth="yes"/>
      <point x="2018" y="744"/>
      <point x="1957" y="763"/>
      <point x="1923" y="793" type="curve"/>
    </contour>
    <contour>
      <point x="2312" y="889" type="line"/>
      <point x="2312" y="1174" type="line"/>
      <point x="2012" y="1174" type="line"/>
      <point x="2012" y="889" type="line"/>
    </contour>
    <contour>
      <point x="1586" y="435" type="line"/>
      <point x="1586" y="345.275"/>
      <point x="1532" y="298"/>
      <point x="1423" y="298" type="curve" smooth="yes"/>
      <point x="1313" y="298"/>
      <point x="1255" y="353"/>
      <point x="1248" y="460" type="curve" smooth="yes"/>
      <point x="1247" y="476" type="line"/>
      <point x="1025" y="476" type="line"/>
      <point x="1046" y="273" type="line" smooth="yes"/>
      <point x="1068" y="73"/>
      <point x="1212" y="-37"/>
      <point x="1482" y="-37" type="curve" smooth="yes"/>
      <point x="1805" y="-37"/>
      <point x="1974" y="105.227"/>
      <point x="1974" y="364" type="curve" smooth="yes"/>
      <point x="1974" y="368" type="line" smooth="yes"/>
      <point x="1974" y="406.952"/>
      <point x="1969.26" y="444.976"/>
      <point x="1956" y="483" type="curve"/>
      <point x="1579" y="483" type="line"/>
      <point x="1583.38" y="468.782"/>
      <point x="1586" y="452.055"/>
      <point x="1586" y="437" type="curve"/>
    </contour>
    <contour>
      <point x="605" y="1211" type="curve" smooth="yes"/>
      <point x="280" y="1211"/>
      <point x="101" y="1082"/>
      <point x="101" y="848" type="curve" smooth="yes"/>
      <point x="101" y="841" type="line" smooth="yes"/>
      <point x="101" y="776"/>
      <point x="118" y="724"/>
      <point x="138" y="693" type="curve"/>
      <point x="472" y="693" type="line"/>
      <point x="454" y="721"/>
      <point x="444" y="755"/>
      <point x="444" y="788" type="curve" smooth="yes"/>
      <point x="444" y="791" type="line" smooth="yes"/>
      <point x="444" y="871"/>
      <point x="498" y="911"/>
      <point x="607" y="911" type="curve" smooth="yes"/>
      <point x="701" y="911"/>
      <point x="746" y="882"/>
      <point x="746" y="825" type="curve"/>
      <point x="746" y="823" type="line"/>
      <point x="746" y="773"/>
      <point x="709" y="750"/>
      <point x="579" y="726" type="curve" smooth="yes"/>
      <point x="482" y="708" type="line" smooth="yes"/>
      <point x="194" y="655"/>
      <point x="76" y="553"/>
      <point x="76" y="343" type="curve" smooth="yes"/>
      <point x="76" y="335" type="line" smooth="yes"/>
      <point x="76" y="95"/>
      <point x="255" y="-37"/>
      <point x="578" y="-37" type="curve" smooth="yes"/>
      <point x="862" y="-37"/>
      <point x="1013" y="74"/>
      <point x="1036" y="273" type="curve"/>
      <point x="1057" y="273" type="line"/>
      <point x="1057" y="476" type="line"/>
      <point x="835" y="476" type="line"/>
      <point x="834" y="462" type="line" smooth="yes"/>
      <point x="825" y="340"/>
      <point x="742" y="276"/>
      <point x="589" y="276" type="curve" smooth="yes"/>
      <point x="487" y="276"/>
      <point x="440" y="303"/>
      <point x="440" y="351" type="curve" smooth="yes"/>
      <point x="440" y="355" type="line" smooth="yes"/>
      <point x="440" y="404"/>
      <point x="479" y="427"/>
      <point x="613" y="452" type="curve" smooth="yes"/>
      <point x="710" y="470" type="line" smooth="yes"/>
      <point x="974" y="519"/>
      <point x="1099" y="618"/>
      <point x="1099" y="817" type="curve" smooth="yes"/>
      <point x="1099" y="823" type="line" smooth="yes"/>
      <point x="1099" y="1074"/>
      <point x="925" y="1211"/>
    </contour>
    <contour>
      <point x="1328" y="493" type="curve" smooth="yes"/>
      <point x="1457" y="493"/>
      <point x="1523" y="546"/>
      <point x="1523" y="647" type="curve" smooth="yes"/>
      <point x="1523" y="654" type="line" smooth="yes"/>
      <point x="1523" y="755"/>
      <point x="1457" y="808"/>
      <point x="1328" y="808" type="curve" smooth="yes"/>
      <point x="1201" y="808"/>
      <point x="1135" y="755"/>
      <point x="1135" y="654" type="curve" smooth="yes"/>
      <point x="1135" y="647" type="line" smooth="yes"/>
      <point x="1135" y="546"/>
      <point x="1201" y="493"/>
    </contour>
  </outline>
  <guideline angle="90" x="338" y="0"/>
  <guideline angle="0" x="0" y="2043"/>
  <guideline angle="0" x="0" y="1525"/>
</glyph>
<glyph name="Ngasmall1.kn" format="2">
  <outline>
    <contour>
      <point x="-457" y="-95" type="curve" smooth="yes"/>
      <point x="-655" y="-95"/>
      <point x="-766" y="-165"/>
      <point x="-766" y="-292" type="curve"/>
      <point x="-766" y="-292"/>
      <point x="-766" y="-294"/>
      <point x="-766" y="-294" type="curve"/>
      <point x="-766" y="-327"/>
      <point x="-759" y="-356"/>
      <point x="-745" y="-376" type="curve"/>
      <point x="-532" y="-376" type="line"/>
      <point x="-539" y="-360"/>
      <point x="-542" y="-345"/>
      <point x="-542" y="-334" type="curve"/>
      <point x="-542" y="-334"/>
      <point x="-542" y="-331"/>
      <point x="-542" y="-331" type="curve"/>
      <point x="-542" y="-298"/>
      <point x="-515" y="-281"/>
      <point x="-455" y="-281" type="curve" smooth="yes"/>
      <point x="-408" y="-281"/>
      <point x="-384" y="-293"/>
      <point x="-384" y="-316" type="curve"/>
      <point x="-384" y="-317" type="line"/>
      <point x="-384" y="-338"/>
      <point x="-405" y="-348"/>
      <point x="-460" y="-357" type="curve" smooth="yes"/>
      <point x="-542" y="-370" type="line" smooth="yes"/>
      <point x="-713" y="-397"/>
      <point x="-783" y="-460"/>
      <point x="-783" y="-581" type="curve" smooth="yes"/>
      <point x="-783" y="-586" type="line" smooth="yes"/>
      <point x="-783" y="-718"/>
      <point x="-669" y="-797"/>
      <point x="-472" y="-797" type="curve" smooth="yes"/>
      <point x="-311" y="-797"/>
      <point x="-220" y="-741"/>
      <point x="-200" y="-644" type="curve"/>
      <point x="-138" y="-644" type="line"/>
      <point x="-176" y="-500" type="line"/>
      <point x="-325" y="-500" type="line"/>
      <point x="-326" y="-507" type="line" smooth="yes"/>
      <point x="-333" y="-559"/>
      <point x="-377" y="-592"/>
      <point x="-466" y="-592" type="curve" smooth="yes"/>
      <point x="-516" y="-592"/>
      <point x="-539" y="-581"/>
      <point x="-539" y="-564" type="curve"/>
      <point x="-539" y="-562" type="line"/>
      <point x="-539" y="-543"/>
      <point x="-516" y="-531"/>
      <point x="-451" y="-520" type="curve" smooth="yes"/>
      <point x="-392" y="-510" type="line" smooth="yes"/>
      <point x="-223" y="-481"/>
      <point x="-152" y="-430"/>
      <point x="-152" y="-320" type="curve" smooth="yes"/>
      <point x="-152" y="-316" type="line" smooth="yes"/>
      <point x="-152" y="-174"/>
      <point x="-261" y="-95"/>
    </contour>
    <contour>
      <point x="122" y="-514" type="line"/>
      <point x="122" y="-557"/>
      <point x="92" y="-581"/>
      <point x="36" y="-581" type="curve" smooth="yes"/>
      <point x="-24" y="-581"/>
      <point x="-60" y="-555"/>
      <point x="-67" y="-507" type="curve" smooth="yes"/>
      <point x="-68" y="-500" type="line"/>
      <point x="-208" y="-500" type="line"/>
      <point x="-194" y="-644" type="line"/>
      <point x="-174" y="-743"/>
      <point x="-86" y="-797"/>
      <point x="74" y="-797" type="curve" smooth="yes"/>
      <point x="273" y="-797"/>
      <point x="377" y="-716"/>
      <point x="377" y="-573" type="curve"/>
      <point x="377" y="-571" type="line"/>
      <point x="377" y="-542"/>
      <point x="372" y="-513"/>
      <point x="359" y="-482" type="curve"/>
      <point x="117" y="-482" type="line"/>
      <point x="120" y="-492"/>
      <point x="122" y="-502"/>
      <point x="122" y="-513" type="curve"/>
    </contour>
    <contour>
      <point x="-154" y="-346" type="line"/>
      <point x="-133" y="-297"/>
      <point x="-84" y="-280"/>
      <point x="-18" y="-280" type="curve" smooth="yes"/>
      <point x="72" y="-280"/>
      <point x="115" y="-309"/>
      <point x="115" y="-373" type="curve"/>
      <point x="115" y="-375" type="line"/>
      <point x="115" y="-384"/>
      <point x="114" y="-394"/>
      <point x="112" y="-406" type="curve"/>
      <point x="344" y="-406" type="line"/>
      <point x="352" y="-388"/>
      <point x="360" y="-358"/>
      <point x="360" y="-323" type="curve" smooth="yes"/>
      <point x="360" y="-319" type="line" smooth="yes"/>
      <point x="360" y="-174"/>
      <point x="248" y="-95"/>
      <point x="45" y="-95" type="curve" smooth="yes"/>
      <point x="-140" y="-95"/>
      <point x="-240" y="-169"/>
      <point x="-240" y="-301" type="curve"/>
    </contour>
    <contour>
      <point x="-30" y="-324" type="curve" smooth="yes"/>
      <point x="-99" y="-324"/>
      <point x="-133" y="-350"/>
      <point x="-133" y="-401" type="curve" smooth="yes"/>
      <point x="-133" y="-405" type="line" smooth="yes"/>
      <point x="-133" y="-456"/>
      <point x="-99" y="-482"/>
      <point x="-30" y="-482" type="curve" smooth="yes"/>
      <point x="39" y="-482"/>
      <point x="73" y="-456"/>
      <point x="73" y="-405" type="curve" smooth="yes"/>
      <point x="73" y="-401" type="line" smooth="yes"/>
      <point x="73" y="-350"/>
      <point x="39" y="-324"/>
    </contour>
  </outline>
  <guideline angle="0" x="0" y="-487"/>
  <guideline angle="90" x="44" y="0"/>
  <guideline angle="90" x="1166" y="0"/>
</glyph>
<glyph name="NnamatraAa.kn" format="2">
  <advance width="3250"/>
  <outline>
    <contour>
      <point x="1606" y="898" type="line"/>
      <point x="1606" y="1174" type="line"/>
      <point x="91" y="1174" type="line"/>
      <point x="91" y="898" type="line"/>
    </contour>
    <contour>
      <point x="2017" y="420.258" type="line"/>
      <point x="2017" y="424" type="line" smooth="yes"/>
      <point x="2017" y="740"/>
      <point x="1829" y="908"/>
      <point x="1455" y="908" type="curve" smooth="yes"/>
      <point x="1192" y="908"/>
      <point x="1053" y="830"/>
      <point x="1032" y="699" type="curve"/>
      <point x="1022" y="699" type="line"/>
      <point x="1001" y="830"/>
      <point x="861" y="908"/>
      <point x="597" y="908" type="curve" smooth="yes"/>
      <point x="268" y="908"/>
      <point x="90" y="816"/>
      <point x="90" y="640" type="curve" smooth="yes"/>
      <point x="90" y="635" type="line" smooth="yes"/>
      <point x="90" y="526"/>
      <point x="171" y="456"/>
      <point x="322" y="437" type="curve"/>
      <point x="322" y="427" type="line"/>
      <point x="168" y="407"/>
      <point x="85" y="335"/>
      <point x="85" y="222" type="curve" smooth="yes"/>
      <point x="85" y="217" type="line" smooth="yes"/>
      <point x="85" y="50"/>
      <point x="253" y="-37"/>
      <point x="567" y="-37" type="curve" smooth="yes"/>
      <point x="672" y="-37"/>
      <point x="769" y="-27"/>
      <point x="861" y="-9" type="curve"/>
      <point x="900" y="234" type="line"/>
      <point x="822" y="217"/>
      <point x="733" y="208"/>
      <point x="627" y="208" type="curve" smooth="yes"/>
      <point x="523" y="208"/>
      <point x="469" y="223"/>
      <point x="469" y="257" type="curve" smooth="yes"/>
      <point x="469" y="260" type="line" smooth="yes"/>
      <point x="469" y="291"/>
      <point x="516" y="304"/>
      <point x="633" y="307" type="curve" smooth="yes"/>
      <point x="773" y="310" type="line"/>
      <point x="773" y="532" type="line"/>
      <point x="633" y="535" type="line" smooth="yes"/>
      <point x="517" y="537"/>
      <point x="470" y="553"/>
      <point x="470" y="590" type="curve" smooth="yes"/>
      <point x="470" y="593" type="line" smooth="yes"/>
      <point x="470" y="632"/>
      <point x="527" y="651"/>
      <point x="636" y="651" type="curve" smooth="yes"/>
      <point x="754" y="651"/>
      <point x="815" y="619"/>
      <point x="825" y="558" type="curve" smooth="yes"/>
      <point x="828" y="540" type="line"/>
      <point x="1227" y="540" type="line"/>
      <point x="1230" y="558" type="line" smooth="yes"/>
      <point x="1240" y="618"/>
      <point x="1301" y="650"/>
      <point x="1414" y="650" type="curve" smooth="yes"/>
      <point x="1559" y="650"/>
      <point x="1637" y="573"/>
      <point x="1637" y="422" type="curve" smooth="yes"/>
      <point x="1637" y="359.421" type="line"/>
    </contour>
    <contour>
      <point x="1637" y="360.421" type="line"/>
      <point x="1637" y="341" type="line" smooth="yes"/>
      <point x="1637" y="249"/>
      <point x="1586" y="202"/>
      <point x="1489" y="202" type="curve" smooth="yes"/>
      <point x="1412" y="202"/>
      <point x="1370" y="224"/>
      <point x="1370" y="265" type="curve"/>
      <point x="1370" y="266" type="line"/>
      <point x="1370" y="303"/>
      <point x="1410" y="324"/>
      <point x="1489" y="324" type="curve" smooth="yes"/>
      <point x="1564" y="324"/>
      <point x="1629" y="305"/>
      <point x="1680" y="268" type="curve"/>
      <point x="1690" y="410" type="line"/>
      <point x="1627" y="410" type="line"/>
      <point x="1597" y="498"/>
      <point x="1502" y="544"/>
      <point x="1348" y="544" type="curve" smooth="yes"/>
      <point x="1137" y="544"/>
      <point x="1013" y="442"/>
      <point x="1013" y="270" type="curve"/>
      <point x="1013" y="268" type="line"/>
      <point x="1013" y="69"/>
      <point x="1175" y="-37"/>
      <point x="1479" y="-37" type="curve" smooth="yes"/>
      <point x="1834" y="-37"/>
      <point x="2017" y="119"/>
      <point x="2017" y="418" type="curve" smooth="yes"/>
      <point x="2017" y="421.258" type="line"/>
    </contour>
    <contour>
      <point x="2422.18" y="1174" type="curve" smooth="yes"/>
      <point x="1561" y="1174" type="line"/>
      <point x="1561" y="898" type="line"/>
      <point x="2400" y="898" type="line" smooth="yes"/>
      <point x="2650.76" y="898"/>
      <point x="2779.18" y="774.897"/>
      <point x="2779.18" y="541" type="curve" smooth="yes"/>
      <point x="2779.18" y="496.88" type="line"/>
      <point x="3159.18" y="524.555" type="line"/>
      <point x="3159.18" y="529" type="line" smooth="yes"/>
      <point x="3159.18" y="952"/>
      <point x="2907.18" y="1174"/>
    </contour>
    <contour>
      <point x="2634.18" y="-36" type="curve" smooth="yes"/>
      <point x="2970.18" y="-36"/>
      <point x="3159.18" y="158"/>
      <point x="3159.18" y="518" type="curve" smooth="yes"/>
      <point x="3159.18" y="525.555" type="line"/>
      <point x="2779.18" y="497.88" type="line"/>
      <point x="2779.18" y="452" type="line" smooth="yes"/>
      <point x="2779.18" y="328"/>
      <point x="2728.18" y="263"/>
      <point x="2631.18" y="263" type="curve" smooth="yes"/>
      <point x="2554.18" y="263"/>
      <point x="2512.18" y="299"/>
      <point x="2512.18" y="367" type="curve"/>
      <point x="2512.18" y="369" type="line"/>
      <point x="2512.18" y="431"/>
      <point x="2552.18" y="466"/>
      <point x="2631.18" y="466" type="curve" smooth="yes"/>
      <point x="2706.18" y="466"/>
      <point x="2771.18" y="436"/>
      <point x="2822.18" y="377" type="curve"/>
      <point x="2832.18" y="530" type="line"/>
      <point x="2769.18" y="530" type="line"/>
      <point x="2740.18" y="660"/>
      <point x="2648.18" y="731"/>
      <point x="2500.18" y="731" type="curve" smooth="yes"/>
      <point x="2281.18" y="731"/>
      <point x="2152.18" y="599"/>
      <point x="2152.18" y="374" type="curve"/>
      <point x="2152.18" y="372" type="line"/>
      <point x="2152.18" y="106"/>
      <point x="2321.18" y="-36"/>
    </contour>
  </outline>
</glyph>
<glyph name="Nnasmall1.kn" format="2">
  <outline>
    <contour>
      <point x="416" y="-458.28" type="line"/>
      <point x="416" y="-456" type="line" smooth="yes"/>
      <point x="416" y="-221"/>
      <point x="299" y="-94"/>
      <point x="63" y="-94" type="curve" smooth="yes"/>
      <point x="-81" y="-94"/>
      <point x="-173" y="-145"/>
      <point x="-188" y="-228" type="curve"/>
      <point x="-192" y="-228" type="line"/>
      <point x="-212" y="-145"/>
      <point x="-307" y="-94"/>
      <point x="-448" y="-94" type="curve" smooth="yes"/>
      <point x="-653" y="-94"/>
      <point x="-765" y="-163"/>
      <point x="-765" y="-298" type="curve" smooth="yes"/>
      <point x="-765" y="-301" type="line" smooth="yes"/>
      <point x="-765" y="-376"/>
      <point x="-726" y="-432"/>
      <point x="-633" y="-447" type="curve"/>
      <point x="-633" y="-447"/>
      <point x="-633" y="-451"/>
      <point x="-633" y="-451" type="curve"/>
      <point x="-730" y="-468"/>
      <point x="-769" y="-525"/>
      <point x="-769" y="-601" type="curve" smooth="yes"/>
      <point x="-769" y="-606" type="line" smooth="yes"/>
      <point x="-769" y="-729"/>
      <point x="-665" y="-797"/>
      <point x="-466" y="-797" type="curve" smooth="yes"/>
      <point x="-402" y="-797"/>
      <point x="-343" y="-790"/>
      <point x="-281" y="-774" type="curve"/>
      <point x="-254" y="-580" type="line"/>
      <point x="-310" y="-594"/>
      <point x="-369" y="-602"/>
      <point x="-431" y="-602" type="curve" smooth="yes"/>
      <point x="-482" y="-602"/>
      <point x="-508" y="-593"/>
      <point x="-508" y="-573" type="curve"/>
      <point x="-508" y="-572" type="line"/>
      <point x="-508" y="-550"/>
      <point x="-483" y="-542"/>
      <point x="-426" y="-541" type="curve" smooth="yes"/>
      <point x="-343" y="-539" type="line"/>
      <point x="-343" y="-371" type="line"/>
      <point x="-426" y="-369" type="line" smooth="yes"/>
      <point x="-483" y="-368"/>
      <point x="-508" y="-358"/>
      <point x="-508" y="-333" type="curve"/>
      <point x="-508" y="-331" type="line"/>
      <point x="-508" y="-308"/>
      <point x="-480" y="-296"/>
      <point x="-425" y="-296" type="curve" smooth="yes"/>
      <point x="-361" y="-296"/>
      <point x="-323" y="-319"/>
      <point x="-317" y="-366" type="curve" smooth="yes"/>
      <point x="-314" y="-388" type="line"/>
      <point x="-69" y="-388" type="line"/>
      <point x="-66" y="-366" type="line" smooth="yes"/>
      <point x="-60" y="-319"/>
      <point x="-22" y="-291"/>
      <point x="40" y="-291" type="curve" smooth="yes"/>
      <point x="118" y="-291"/>
      <point x="162" y="-345"/>
      <point x="162" y="-453" type="curve" smooth="yes"/>
      <point x="162" y="-495.996" type="line"/>
    </contour>
    <contour>
      <point x="162" y="-494.996" type="line"/>
      <point x="162" y="-511" type="line" smooth="yes"/>
      <point x="162" y="-575"/>
      <point x="135" y="-608"/>
      <point x="83" y="-608" type="curve" smooth="yes"/>
      <point x="47" y="-608"/>
      <point x="28" y="-594"/>
      <point x="28" y="-569" type="curve"/>
      <point x="28" y="-568" type="line"/>
      <point x="28" y="-544"/>
      <point x="47" y="-528"/>
      <point x="83" y="-528" type="curve" smooth="yes"/>
      <point x="126" y="-528"/>
      <point x="167" y="-548"/>
      <point x="206" y="-589" type="curve"/>
      <point x="212" y="-457" type="line"/>
      <point x="158" y="-457" type="line"/>
      <point x="136" y="-400"/>
      <point x="79" y="-367"/>
      <point x="-1" y="-367" type="curve" smooth="yes"/>
      <point x="-128" y="-367"/>
      <point x="-211" y="-442"/>
      <point x="-211" y="-563" type="curve"/>
      <point x="-211" y="-565" type="line"/>
      <point x="-211" y="-714"/>
      <point x="-108" y="-797"/>
      <point x="83" y="-797" type="curve" smooth="yes"/>
      <point x="304" y="-797"/>
      <point x="416" y="-678"/>
      <point x="416" y="-461" type="curve" smooth="yes"/>
      <point x="416" y="-457.28" type="line"/>
    </contour>
  </outline>
</glyph>
<glyph name="Nukta2.kn" format="2">
  <anchor x="0" y="0" name="_nukta"/>
  <outline>
    <contour>
      <point x="-483" y="-128" type="curve" smooth="yes"/>
      <point x="-595" y="-128"/>
      <point x="-662" y="-184"/>
      <point x="-662" y="-283" type="curve" smooth="yes"/>
      <point x="-662" y="-382"/>
      <point x="-595" y="-438"/>
      <point x="-483" y="-438" type="curve" smooth="yes"/>
      <point x="-371" y="-438"/>
      <point x="-304" y="-382"/>
      <point x="-304" y="-283" type="curve" smooth="yes"/>
      <point x="-304" y="-184"/>
      <point x="-371" y="-128"/>
    </contour>
    <contour>
      <point x="483" y="-128" type="curve" smooth="yes"/>
      <point x="371" y="-128"/>
      <point x="304" y="-184"/>
      <point x="304" y="-283" type="curve" smooth="yes"/>
      <point x="304" y="-382"/>
      <point x="371" y="-438"/>
      <point x="483" y="-438" type="curve" smooth="yes"/>
      <point x="595" y="-438"/>
      <point x="662" y="-382"/>
      <point x="662" y="-283" type="curve" smooth="yes"/>
      <point x="662" y="-184"/>
      <point x="595" y="-128"/>
    </contour>
  </outline>
  <guideline angle="90" x="-6" y="0"/>
</glyph>
<glyph name="Pasmall1.kn" format="2">
  <outline>
    <contour>
      <point x="0" y="-72" type="curve" smooth="yes"/>
      <point x="-29" y="-72"/>
      <point x="-53" y="-73"/>
      <point x="-76" y="-75" type="curve"/>
      <point x="-76" y="-290" type="line"/>
      <point x="-64" y="-289"/>
      <point x="-54" y="-289"/>
      <point x="-43" y="-289" type="curve" smooth="yes"/>
      <point x="62" y="-289"/>
      <point x="112" y="-333"/>
      <point x="112" y="-425" type="curve" smooth="yes"/>
      <point x="112" y="-431" type="line" smooth="yes"/>
      <point x="112" y="-500"/>
      <point x="81" y="-537"/>
      <point x="21" y="-537" type="curve" smooth="yes"/>
      <point x="-40" y="-537"/>
      <point x="-64" y="-506"/>
      <point x="-72" y="-450" type="curve" smooth="yes"/>
      <point x="-75" y="-430" type="line"/>
      <point x="-221" y="-430" type="line"/>
      <point x="-199" y="-604" type="line"/>
      <point x="-173" y="-706"/>
      <point x="-95" y="-757"/>
      <point x="58" y="-757" type="curve" smooth="yes"/>
      <point x="267" y="-757"/>
      <point x="374" y="-647"/>
      <point x="374" y="-439" type="curve" smooth="yes"/>
      <point x="374" y="-431" type="line" smooth="yes"/>
      <point x="374" y="-196"/>
      <point x="245" y="-72"/>
    </contour>
    <contour>
      <point x="-453" y="-537" type="curve" smooth="yes"/>
      <point x="-515" y="-537"/>
      <point x="-542" y="-519"/>
      <point x="-542" y="-482" type="curve"/>
      <point x="-542" y="-481" type="line"/>
      <point x="-542" y="-449"/>
      <point x="-520" y="-431"/>
      <point x="-479" y="-431" type="curve" smooth="yes"/>
      <point x="-452" y="-431"/>
      <point x="-418" y="-436"/>
      <point x="-388" y="-449" type="curve"/>
      <point x="-402" y="-242" type="line"/>
      <point x="-441" y="-228"/>
      <point x="-485" y="-220"/>
      <point x="-536" y="-220" type="curve" smooth="yes"/>
      <point x="-705" y="-220"/>
      <point x="-801" y="-319"/>
      <point x="-801" y="-486" type="curve" smooth="yes"/>
      <point x="-801" y="-490" type="line" smooth="yes"/>
      <point x="-801" y="-664"/>
      <point x="-690" y="-757"/>
      <point x="-478" y="-757" type="curve" smooth="yes"/>
      <point x="-316" y="-757"/>
      <point x="-225" y="-701"/>
      <point x="-205" y="-604" type="curve"/>
      <point x="-143" y="-604" type="line"/>
      <point x="-181" y="-430" type="line"/>
      <point x="-328" y="-430" type="line"/>
      <point x="-331" y="-450" type="line" smooth="yes"/>
      <point x="-339" y="-503"/>
      <point x="-376" y="-537"/>
    </contour>
  </outline>
  <guideline angle="90" x="584" y="0"/>
</glyph>
<glyph name="PhamatraE.kn" format="2">
  <advance width="2062"/>
  <anchor x="1045" y="0" name="nukta"/>
  <outline>
    <component base="PamatraE.kn"/>
    <contour>
      <point x="1045" y="-462" type="curve" smooth="yes"/>
      <point x="1181" y="-462"/>
      <point x="1252" y="-397"/>
      <point x="1252" y="-272" type="curve" smooth="yes"/>
      <point x="1252" y="-264" type="line" smooth="yes"/>
      <point x="1252" y="-153"/>
      <point x="1195" y="-65"/>
      <point x="1045" y="46" type="curve"/>
      <point x="895" y="-65"/>
      <point x="838" y="-153"/>
      <point x="838" y="-264" type="curve" smooth="yes"/>
      <point x="838" y="-272" type="line" smooth="yes"/>
      <point x="838" y="-397"/>
      <point x="909" y="-462"/>
    </contour>
  </outline>
  <guideline angle="90" x="80" y="0"/>
</glyph>
<glyph name="PhamatraI.kn" format="2">
  <advance width="2055"/>
  <anchor x="1037" y="0" name="nukta"/>
  <outline>
    <component base="PamatraI.kn"/>
    <contour>
      <point x="1038" y="-462" type="curve" smooth="yes"/>
      <point x="1174" y="-462"/>
      <point x="1245" y="-397"/>
      <point x="1245" y="-272" type="curve" smooth="yes"/>
      <point x="1245" y="-264" type="line" smooth="yes"/>
      <point x="1245" y="-153"/>
      <point x="1188" y="-65"/>
      <point x="1038" y="46" type="curve"/>
      <point x="888" y="-65"/>
      <point x="831" y="-153"/>
      <point x="831" y="-264" type="curve" smooth="yes"/>
      <point x="831" y="-272" type="line" smooth="yes"/>
      <point x="831" y="-397"/>
      <point x="902" y="-462"/>
    </contour>
  </outline>
  <guideline angle="90" x="73" y="0"/>
  <guideline angle="0" x="0" y="-462"/>
</glyph>
<glyph name="RamatraE.kn" format="2">
  <advance width="1716"/>
  <outline>
    <component base="matraE.kn" xOffset="649"/>
    <contour>
      <point x="384" y="908" type="line"/>
      <point x="384" y="880" type="line"/>
      <point x="198" y="835"/>
      <point x="93" y="701"/>
      <point x="93" y="500" type="curve" smooth="yes"/>
      <point x="93" y="482" type="line" smooth="yes"/>
      <point x="93" y="137"/>
      <point x="364" y="-51"/>
      <point x="858" y="-51" type="curve" smooth="yes"/>
      <point x="1352" y="-51"/>
      <point x="1623" y="137"/>
      <point x="1623" y="482" type="curve" smooth="yes"/>
      <point x="1623" y="500" type="line" smooth="yes"/>
      <point x="1623" y="701"/>
      <point x="1518" y="835"/>
      <point x="1332" y="880" type="curve"/>
      <point x="1332" y="908" type="line"/>
    </contour>
    <contour>
      <point x="858" y="279" type="curve" smooth="yes"/>
      <point x="614" y="279"/>
      <point x="483" y="386"/>
      <point x="483" y="581" type="curve" smooth="yes"/>
      <point x="483" y="587" type="line" smooth="yes"/>
      <point x="483" y="782"/>
      <point x="614" y="889"/>
      <point x="858" y="889" type="curve" smooth="yes"/>
      <point x="1102" y="889"/>
      <point x="1233" y="782"/>
      <point x="1233" y="587" type="curve" smooth="yes"/>
      <point x="1233" y="581" type="line" smooth="yes"/>
      <point x="1233" y="386"/>
      <point x="1102" y="279"/>
    </contour>
    <contour>
      <point x="1186" y="889" type="line"/>
      <point x="1186" y="1174" type="line"/>
      <point x="93" y="1174" type="line"/>
      <point x="93" y="889" type="line"/>
    </contour>
  </outline>
  <guideline angle="90" x="1623" y="0"/>
</glyph>
<glyph name="RamatraI.kn" format="2">
  <advance width="1716"/>
  <outline>
    <contour>
      <point x="858" y="279" type="curve" smooth="yes"/>
      <point x="614" y="279"/>
      <point x="483" y="381"/>
      <point x="483" y="567" type="curve" smooth="yes"/>
      <point x="483" y="573" type="line" smooth="yes"/>
      <point x="483" y="758"/>
      <point x="614" y="859"/>
      <point x="858" y="859" type="curve" smooth="yes"/>
      <point x="1102" y="859"/>
      <point x="1233" y="758"/>
      <point x="1233" y="573" type="curve" smooth="yes"/>
      <point x="1233" y="567" type="line" smooth="yes"/>
      <point x="1233" y="381"/>
      <point x="1102" y="279"/>
    </contour>
    <contour>
      <point x="732" y="1629" type="curve" smooth="yes"/>
      <point x="316" y="1629"/>
      <point x="93" y="1477"/>
      <point x="93" y="1207" type="curve" smooth="yes"/>
      <point x="93" y="1029"/>
      <point x="185" y="931"/>
      <point x="388" y="885" type="curve"/>
      <point x="527" y="1110" type="line"/>
      <point x="499" y="1122"/>
      <point x="484" y="1148"/>
      <point x="484" y="1185" type="curve" smooth="yes"/>
      <point x="484" y="1269"/>
      <point x="568.253" y="1315"/>
      <point x="743" y="1315" type="curve" smooth="yes"/>
      <point x="1186" y="1315"/>
      <point x="1332" y="1004"/>
      <point x="1332" y="706" type="curve" smooth="yes"/>
      <point x="1332" y="543" type="line"/>
      <point x="1623" y="646" type="line"/>
      <point x="1623" y="656" type="line" smooth="yes"/>
      <point x="1623" y="1273"/>
      <point x="1345" y="1629"/>
    </contour>
    <contour>
      <point x="1287" y="957" type="curve"/>
      <point x="1179" y="1103"/>
      <point x="1035" y="1170"/>
      <point x="808" y="1170" type="curve" smooth="yes"/>
      <point x="657" y="1170"/>
      <point x="525" y="1138"/>
      <point x="417" y="1080" type="curve"/>
      <point x="397.305" y="1064.98"/>
      <point x="335.695" y="1018.01"/>
      <point x="316" y="1003" type="curve"/>
      <point x="164" y="903"/>
      <point x="93" y="753"/>
      <point x="93" y="570" type="curve" smooth="yes"/>
      <point x="93" y="552" type="line" smooth="yes"/>
      <point x="93" y="162"/>
      <point x="364" y="-51"/>
      <point x="858" y="-51" type="curve" smooth="yes"/>
      <point x="1357" y="-51"/>
      <point x="1623" y="182"/>
      <point x="1623" y="637" type="curve" smooth="yes"/>
      <point x="1623" y="650" type="line"/>
      <point x="1320" y="967" type="line"/>
      <point x="1312.38" y="964.692"/>
      <point x="1293.43" y="958.947"/>
    </contour>
  </outline>
  <guideline angle="0" x="0" y="644"/>
  <guideline angle="0" x="0" y="1083"/>
  <guideline angle="0" x="0" y="859"/>
  <guideline angle="0" x="0" y="1478"/>
</glyph>
<glyph name="RamatraU.kn" format="2">
  <advance width="2600"/>
  <outline>
    <component base="Ra.kn"/>
    <component base="matraU.kn" xOffset="1728"/>
    <contour>
      <point x="1501" y="486" type="line"/>
      <point x="1623" y="487" type="line"/>
      <point x="1623" y="504" type="line"/>
      <point x="1501" y="504" type="line"/>
    </contour>
  </outline>
</glyph>
<glyph name="RamatraUu.kn" format="2">
  <advance width="3452"/>
  <outline>
    <component base="Ra.kn"/>
    <component base="matraUu.kn" xOffset="1733" yOffset="2"/>
    <contour>
      <point x="1500" y="416" type="line"/>
      <point x="1622" y="417" type="line"/>
      <point x="1622" y="464" type="line"/>
      <point x="1500" y="464" type="line"/>
    </contour>
  </outline>
</glyph>
<glyph name="Rasmall1.kn.alt1" format="2">
  <advance width="320"/>
  <outline>
    <contour>
      <point x="-23" y="215" type="line"/>
      <point x="8" y="141"/>
      <point x="34" y="40"/>
      <point x="34" y="-74" type="curve" smooth="yes"/>
      <point x="34" y="-374"/>
      <point x="-182" y="-536"/>
      <point x="-674" y="-536" type="curve" smooth="yes"/>
      <point x="-1010" y="-536"/>
      <point x="-1332" y="-481"/>
      <point x="-1579" y="-398" type="curve"/>
      <point x="-1531" y="-705" type="line"/>
      <point x="-1297" y="-783"/>
      <point x="-989" y="-825"/>
      <point x="-648" y="-825" type="curve" smooth="yes"/>
      <point x="51" y="-825"/>
      <point x="376" y="-588"/>
      <point x="376" y="-118" type="curve" smooth="yes"/>
      <point x="376" y="10"/>
      <point x="341" y="139"/>
      <point x="294" y="215" type="curve"/>
    </contour>
  </outline>
</glyph>
<glyph name="Rasmall1.kn" format="2">
  <advance width="300"/>
  <outline>
    <contour>
      <point x="353" y="-38" type="curve" smooth="yes"/>
      <point x="353" y="60"/>
      <point x="327" y="157"/>
      <point x="291" y="215" type="curve"/>
      <point x="-30" y="215" type="line"/>
      <point x="-10" y="162"/>
      <point x="7" y="88"/>
      <point x="7" y="6" type="curve" smooth="yes"/>
      <point x="7" y="-204"/>
      <point x="-158" y="-316"/>
      <point x="-534" y="-316" type="curve" smooth="yes"/>
      <point x="-843" y="-316"/>
      <point x="-1142" y="-271"/>
      <point x="-1369" y="-198" type="curve"/>
      <point x="-1321" y="-504" type="line"/>
      <point x="-1106" y="-576"/>
      <point x="-822" y="-614"/>
      <point x="-508" y="-614" type="curve" smooth="yes"/>
      <point x="79" y="-614"/>
      <point x="353" y="-421"/>
    </contour>
  </outline>
</glyph>
<glyph name="Rasmall4.kn" format="2">
  <outline>
    <contour>
      <point x="332" y="-589" type="curve" smooth="yes"/>
      <point x="332" y="-520"/>
      <point x="314" y="-452"/>
      <point x="289" y="-412" type="curve"/>
      <point x="64" y="-412" type="line"/>
      <point x="78" y="-449"/>
      <point x="90" y="-500"/>
      <point x="90" y="-558" type="curve" smooth="yes"/>
      <point x="90" y="-725.316"/>
      <point x="-56.0297" y="-813"/>
      <point x="-392" y="-813" type="curve" smooth="yes"/>
      <point x="-603.021" y="-813"/>
      <point x="-806.766" y="-790.122"/>
      <point x="-962" y="-754" type="curve"/>
      <point x="-929" y="-956" type="line"/>
      <point x="-781.407" y="-992.383"/>
      <point x="-587.462" y="-1013"/>
      <point x="-374" y="-1013" type="curve" smooth="yes"/>
      <point x="107.825" y="-1013"/>
      <point x="332" y="-871.044"/>
    </contour>
  </outline>
</glyph>
<glyph name="Sasmall1.kn" format="2">
  <outline>
    <contour>
      <point x="-510" y="-272" type="curve" smooth="yes"/>
      <point x="-703" y="-272"/>
      <point x="-821" y="-369"/>
      <point x="-821" y="-562" type="curve" smooth="yes"/>
      <point x="-821" y="-566" type="line" smooth="yes"/>
      <point x="-821" y="-637"/>
      <point x="-802" y="-697"/>
      <point x="-771" y="-750" type="curve"/>
      <point x="-507" y="-750" type="line"/>
      <point x="-537" y="-697"/>
      <point x="-559" y="-629"/>
      <point x="-559" y="-578" type="curve" smooth="yes"/>
      <point x="-559" y="-573" type="line" smooth="yes"/>
      <point x="-559" y="-520"/>
      <point x="-537" y="-492"/>
      <point x="-494" y="-492" type="curve" smooth="yes"/>
      <point x="-459" y="-492"/>
      <point x="-440" y="-507"/>
      <point x="-408" y="-559" type="curve" smooth="yes"/>
      <point x="-380" y="-604" type="line" smooth="yes"/>
      <point x="-313" y="-712"/>
      <point x="-212" y="-757"/>
      <point x="-63" y="-757" type="curve" smooth="yes"/>
      <point x="162" y="-757"/>
      <point x="282" y="-645"/>
      <point x="282" y="-433" type="curve" smooth="yes"/>
      <point x="282" y="-426" type="line" smooth="yes"/>
      <point x="282" y="-194"/>
      <point x="153" y="-72"/>
      <point x="-92" y="-72" type="curve" smooth="yes"/>
      <point x="-121" y="-72"/>
      <point x="-145" y="-73"/>
      <point x="-168" y="-75" type="curve"/>
      <point x="-168" y="-290" type="line"/>
      <point x="-156" y="-289"/>
      <point x="-146" y="-289"/>
      <point x="-135" y="-289" type="curve" smooth="yes"/>
      <point x="-30" y="-289"/>
      <point x="20" y="-333"/>
      <point x="20" y="-425" type="curve" smooth="yes"/>
      <point x="20" y="-430" type="line" smooth="yes"/>
      <point x="20" y="-500"/>
      <point x="-13" y="-537"/>
      <point x="-72" y="-537" type="curve" smooth="yes"/>
      <point x="-122" y="-537"/>
      <point x="-155" y="-514"/>
      <point x="-189" y="-464" type="curve" smooth="yes"/>
      <point x="-222" y="-416" type="line" smooth="yes"/>
      <point x="-286" y="-323"/>
      <point x="-367" y="-272"/>
    </contour>
  </outline>
</glyph>
<glyph name="TaYasmall.kn" format="2">
  <advance width="520"/>
  <outline>
    <contour>
      <point x="10" y="-586" type="line"/>
      <point x="-150" y="-650"/>
      <point x="-243" y="-696"/>
      <point x="-243" y="-820" type="curve" smooth="yes"/>
      <point x="-243" y="-953"/>
      <point x="-101" y="-1036"/>
      <point x="146" y="-1036" type="curve" smooth="yes"/>
      <point x="459" y="-1036"/>
      <point x="615" y="-901"/>
      <point x="615" y="-637" type="curve"/>
      <point x="615" y="-636" type="line"/>
      <point x="615" y="-350"/>
      <point x="401" y="-204"/>
      <point x="401" y="-73" type="curve"/>
      <point x="401" y="-72" type="line"/>
      <point x="401" y="-20"/>
      <point x="431" y="7"/>
      <point x="495" y="7" type="curve" smooth="yes"/>
      <point x="524" y="7"/>
      <point x="554" y="0"/>
      <point x="583" y="-13" type="curve"/>
      <point x="543" y="210" type="line"/>
      <point x="506" y="222"/>
      <point x="467" y="227"/>
      <point x="422" y="227" type="curve" smooth="yes"/>
      <point x="239" y="227"/>
      <point x="138" y="126"/>
      <point x="138" y="-45" type="curve"/>
      <point x="138" y="-46" type="line"/>
      <point x="138" y="-298"/>
      <point x="351" y="-405"/>
      <point x="351" y="-628" type="curve"/>
      <point x="351" y="-630" type="line"/>
      <point x="351" y="-755"/>
      <point x="288" y="-812"/>
      <point x="147" y="-812" type="curve" smooth="yes"/>
      <point x="47" y="-812"/>
      <point x="1" y="-785"/>
      <point x="1" y="-741" type="curve" smooth="yes"/>
      <point x="1" y="-692"/>
      <point x="37" y="-665"/>
      <point x="72" y="-622" type="curve"/>
    </contour>
    <contour>
      <point x="-313" y="-755" type="line" smooth="yes"/>
      <point x="-28.5625" y="-755"/>
      <point x="131" y="-651.606"/>
      <point x="131" y="-433" type="curve" smooth="yes"/>
      <point x="131" y="-427" type="line" smooth="yes"/>
      <point x="131" y="-211.298"/>
      <point x="-17.5577" y="-100"/>
      <point x="-281" y="-100" type="curve" smooth="yes"/>
      <point x="-534.446" y="-100"/>
      <point x="-678" y="-187.268"/>
      <point x="-678" y="-352" type="curve"/>
      <point x="-678" y="-353" type="line"/>
      <point x="-678" y="-431.469"/>
      <point x="-639.404" y="-491.531"/>
      <point x="-568" y="-508" type="curve"/>
      <point x="-568" y="-515" type="line"/>
      <point x="-1262" y="-515" type="line"/>
      <point x="-1222" y="-755" type="line"/>
    </contour>
    <contour>
      <point x="-277" y="-340" type="curve" smooth="yes"/>
      <point x="-199.667" y="-340"/>
      <point x="-161" y="-370.316"/>
      <point x="-161" y="-430" type="curve" smooth="yes"/>
      <point x="-161" y="-435" type="line" smooth="yes"/>
      <point x="-161" y="-494.684"/>
      <point x="-199.667" y="-525"/>
      <point x="-277" y="-525" type="curve" smooth="yes"/>
      <point x="-354.333" y="-525"/>
      <point x="-393" y="-494.684"/>
      <point x="-393" y="-435" type="curve" smooth="yes"/>
      <point x="-393" y="-430" type="line" smooth="yes"/>
      <point x="-393" y="-370.316"/>
      <point x="-354.333" y="-340"/>
    </contour>
  </outline>
</glyph>
<glyph name="TamatraAa.kn" format="2">
  <advance width="2674"/>
  <outline>
    <component base="matraAa.kn" xOffset="917"/>
    <contour>
      <point x="782" y="270" type="curve" smooth="yes"/>
      <point x="529" y="270"/>
      <point x="297" y="321"/>
      <point x="72" y="420" type="curve"/>
      <point x="94" y="94" type="line"/>
      <point x="288" y="0"/>
      <point x="558" y="-42"/>
      <point x="793" y="-42" type="curve" smooth="yes"/>
      <point x="1229" y="-42"/>
      <point x="1444" y="85"/>
      <point x="1444" y="332" type="curve" smooth="yes"/>
      <point x="1444" y="339" type="line" smooth="yes"/>
      <point x="1444" y="488"/>
      <point x="1359" y="581"/>
      <point x="1202" y="604" type="curve"/>
      <point x="1202" y="612" type="line"/>
      <point x="1288" y="621"/>
      <point x="1339" y="668"/>
      <point x="1339" y="741" type="curve"/>
      <point x="1339" y="743" type="line"/>
      <point x="1339" y="825"/>
      <point x="1278" y="872"/>
      <point x="1163" y="881" type="curve"/>
      <point x="1163" y="960" type="line"/>
      <point x="826" y="960" type="line"/>
      <point x="796" y="889" type="line"/>
      <point x="906" y="889"/>
      <point x="949" y="864"/>
      <point x="949" y="814" type="curve"/>
      <point x="949" y="812" type="line"/>
      <point x="949" y="765"/>
      <point x="914.995" y="747.399"/>
      <point x="821" y="746" type="curve" smooth="yes"/>
      <point x="418" y="740" type="line"/>
      <point x="418" y="467" type="line"/>
      <point x="911" y="460" type="line" smooth="yes"/>
      <point x="1012.99" y="458.552"/>
      <point x="1054" y="437.725"/>
      <point x="1054" y="379" type="curve" smooth="yes"/>
      <point x="1054" y="375" type="line" smooth="yes"/>
      <point x="1054" y="302.689"/>
      <point x="961" y="270"/>
    </contour>
    <contour>
      <point x="986" y="889" type="line"/>
      <point x="986" y="1174" type="line"/>
      <point x="99" y="1174" type="line"/>
      <point x="99" y="889" type="line"/>
    </contour>
    <contour>
      <point x="1286" y="889" type="line"/>
      <point x="1286" y="1174" type="line"/>
      <point x="926.358" y="1174" type="line"/>
      <point x="926.358" y="889" type="line"/>
    </contour>
  </outline>
  <guideline angle="0" x="0" y="593"/>
</glyph>
<glyph name="Tasmall1.kn" format="2">
  <outline>
    <contour>
      <point x="-313" y="-765" type="line" smooth="yes"/>
      <point x="-28.5625" y="-765"/>
      <point x="131" y="-660"/>
      <point x="131" y="-438" type="curve" smooth="yes"/>
      <point x="131" y="-432" type="line" smooth="yes"/>
      <point x="131" y="-213"/>
      <point x="-17.5577" y="-100"/>
      <point x="-281" y="-100" type="curve" smooth="yes"/>
      <point x="-534.446" y="-100"/>
      <point x="-678" y="-189"/>
      <point x="-678" y="-357" type="curve"/>
      <point x="-678" y="-358" type="line"/>
      <point x="-678" y="-439"/>
      <point x="-639.404" y="-501"/>
      <point x="-568" y="-518" type="curve"/>
      <point x="-568" y="-525" type="line"/>
      <point x="-1262" y="-525" type="line"/>
      <point x="-1222" y="-765" type="line"/>
    </contour>
    <contour>
      <point x="-277" y="-340" type="curve" smooth="yes"/>
      <point x="-199.667" y="-340"/>
      <point x="-161" y="-372"/>
      <point x="-161" y="-435" type="curve" smooth="yes"/>
      <point x="-161" y="-440" type="line" smooth="yes"/>
      <point x="-161" y="-503"/>
      <point x="-199.667" y="-535"/>
      <point x="-277" y="-535" type="curve" smooth="yes"/>
      <point x="-354.333" y="-535"/>
      <point x="-393" y="-503"/>
      <point x="-393" y="-440" type="curve" smooth="yes"/>
      <point x="-393" y="-435" type="line" smooth="yes"/>
      <point x="-393" y="-372"/>
      <point x="-354.333" y="-340"/>
    </contour>
  </outline>
</glyph>
<glyph name="TtamatraAa.kn" format="2">
  <advance width="3161"/>
  <outline>
    <component base="matraAa.kn" xOffset="1404"/>
    <contour>
      <point x="462" y="383" type="curve" smooth="yes"/>
      <point x="462" y="387" type="line" smooth="yes"/>
      <point x="462" y="448"/>
      <point x="509" y="476"/>
      <point x="625" y="478" type="curve" smooth="yes"/>
      <point x="765" y="481" type="line"/>
      <point x="765" y="744" type="line"/>
      <point x="625" y="747" type="line" smooth="yes"/>
      <point x="516" y="749"/>
      <point x="471" y="772"/>
      <point x="471" y="824" type="curve" smooth="yes"/>
      <point x="471" y="828" type="line" smooth="yes"/>
      <point x="471" y="883"/>
      <point x="521" y="906"/>
      <point x="619" y="906" type="curve" smooth="yes"/>
      <point x="725" y="906"/>
      <point x="814" y="894"/>
      <point x="892" y="870" type="curve"/>
      <point x="853" y="1175" type="line"/>
      <point x="761" y="1199"/>
      <point x="664" y="1213"/>
      <point x="559" y="1213" type="curve" smooth="yes"/>
      <point x="251" y="1213"/>
      <point x="87" y="1100"/>
      <point x="87" y="882" type="curve" smooth="yes"/>
      <point x="87" y="875" type="line" smooth="yes"/>
      <point x="87" y="724"/>
      <point x="170" y="628"/>
      <point x="324" y="604" type="curve"/>
      <point x="324" y="595" type="line"/>
      <point x="167" y="572"/>
      <point x="82" y="479"/>
      <point x="82" y="332" type="curve" smooth="yes"/>
      <point x="82" y="325" type="line" smooth="yes"/>
      <point x="82" y="88"/>
      <point x="256" y="-37"/>
      <point x="579" y="-37" type="curve" smooth="yes"/>
      <point x="843" y="-37"/>
      <point x="983" y="71"/>
      <point x="1004" y="256" type="curve"/>
      <point x="1014" y="256" type="line"/>
      <point x="1035" y="71"/>
      <point x="1175" y="-37"/>
      <point x="1439" y="-37" type="curve" smooth="yes"/>
      <point x="1762" y="-37"/>
      <point x="1936" y="88"/>
      <point x="1936" y="325" type="curve" smooth="yes"/>
      <point x="1936" y="332" type="line" smooth="yes"/>
      <point x="1936" y="476"/>
      <point x="1855" y="568"/>
      <point x="1704" y="594" type="curve"/>
      <point x="1704" y="602" type="line"/>
      <point x="1864" y="616"/>
      <point x="1921" y="668"/>
      <point x="1921" y="750" type="curve"/>
      <point x="1921" y="752" type="line"/>
      <point x="1921" y="829"/>
      <point x="1865" y="871"/>
      <point x="1757" y="880" type="curve"/>
      <point x="1757" y="960" type="line"/>
      <point x="1420" y="960" type="line"/>
      <point x="1400" y="889" type="line"/>
      <point x="1506" y="889"/>
      <point x="1547" y="866"/>
      <point x="1547" y="819" type="curve"/>
      <point x="1547" y="817" type="line"/>
      <point x="1547" y="770"/>
      <point x="1505" y="749"/>
      <point x="1403" y="747" type="curve" smooth="yes"/>
      <point x="1253" y="744" type="line"/>
      <point x="1253" y="481" type="line"/>
      <point x="1393" y="478" type="line" smooth="yes"/>
      <point x="1509" y="476"/>
      <point x="1556" y="448"/>
      <point x="1556" y="387" type="curve" smooth="yes"/>
      <point x="1556" y="383" type="line" smooth="yes"/>
      <point x="1556" y="319"/>
      <point x="1502" y="288"/>
      <point x="1400" y="288" type="curve" smooth="yes"/>
      <point x="1274" y="288"/>
      <point x="1227" y="343"/>
      <point x="1215" y="447" type="curve" smooth="yes"/>
      <point x="1212" y="472" type="line"/>
      <point x="806" y="472" type="line"/>
      <point x="803" y="447" type="line" smooth="yes"/>
      <point x="791" y="343"/>
      <point x="744" y="288"/>
      <point x="618" y="288" type="curve" smooth="yes"/>
      <point x="516" y="288"/>
      <point x="462" y="319"/>
    </contour>
    <contour>
      <point x="1652" y="889" type="line"/>
      <point x="1652" y="1174" type="line"/>
      <point x="1194" y="1174" type="line"/>
      <point x="1194" y="889" type="line"/>
    </contour>
  </outline>
</glyph>
<glyph name="TtamatraE.kn" format="2">
  <advance width="2023"/>
  <outline>
    <component base="matraE.kn" xOffset="969"/>
    <contour>
      <point x="1652" y="889" type="line"/>
      <point x="1652" y="1174" type="line"/>
      <point x="1194" y="1174" type="line"/>
      <point x="1194" y="889" type="line"/>
    </contour>
    <contour>
      <point x="886" y="472" type="line"/>
      <point x="1014" y="256" type="line"/>
      <point x="1035" y="71"/>
      <point x="1175" y="-37"/>
      <point x="1439" y="-37" type="curve" smooth="yes"/>
      <point x="1762" y="-37"/>
      <point x="1936" y="88"/>
      <point x="1936" y="325" type="curve" smooth="yes"/>
      <point x="1936" y="332" type="line" smooth="yes"/>
      <point x="1936" y="476"/>
      <point x="1855" y="568"/>
      <point x="1704" y="594" type="curve"/>
      <point x="1704" y="602" type="line"/>
      <point x="1864" y="616"/>
      <point x="1921" y="670"/>
      <point x="1921" y="755" type="curve"/>
      <point x="1921" y="757" type="line"/>
      <point x="1921" y="845"/>
      <point x="1865" y="892"/>
      <point x="1757" y="903" type="curve"/>
      <point x="1757" y="960" type="line"/>
      <point x="1420" y="960" type="line"/>
      <point x="1400" y="889" type="line"/>
      <point x="1506" y="889"/>
      <point x="1547" y="866"/>
      <point x="1547" y="819" type="curve"/>
      <point x="1547" y="817" type="line"/>
      <point x="1547" y="770"/>
      <point x="1505" y="749"/>
      <point x="1403" y="747" type="curve" smooth="yes"/>
      <point x="1253" y="744" type="line"/>
      <point x="1253" y="481" type="line"/>
      <point x="1393" y="478" type="line" smooth="yes"/>
      <point x="1509" y="476"/>
      <point x="1556" y="448"/>
      <point x="1556" y="387" type="curve" smooth="yes"/>
      <point x="1556" y="383" type="line" smooth="yes"/>
      <point x="1556" y="319"/>
      <point x="1502" y="288"/>
      <point x="1400" y="288" type="curve" smooth="yes"/>
      <point x="1274" y="288"/>
      <point x="1227" y="343"/>
      <point x="1215" y="447" type="curve" smooth="yes"/>
      <point x="1212" y="472" type="line"/>
    </contour>
    <contour>
      <point x="559" y="1213" type="curve" smooth="yes"/>
      <point x="251" y="1213"/>
      <point x="87" y="1100"/>
      <point x="87" y="882" type="curve" smooth="yes"/>
      <point x="87" y="875" type="line" smooth="yes"/>
      <point x="87" y="724"/>
      <point x="170" y="628"/>
      <point x="324" y="604" type="curve"/>
      <point x="324" y="595" type="line"/>
      <point x="167" y="572"/>
      <point x="82" y="479"/>
      <point x="82" y="332" type="curve" smooth="yes"/>
      <point x="82" y="325" type="line" smooth="yes"/>
      <point x="82" y="88"/>
      <point x="256" y="-37"/>
      <point x="579" y="-37" type="curve" smooth="yes"/>
      <point x="843" y="-37"/>
      <point x="983" y="71"/>
      <point x="1004" y="256" type="curve"/>
      <point x="1111" y="254" type="line"/>
      <point x="1040" y="472" type="line"/>
      <point x="806" y="472" type="line"/>
      <point x="803" y="447" type="line" smooth="yes"/>
      <point x="791" y="343"/>
      <point x="744" y="288"/>
      <point x="618" y="288" type="curve" smooth="yes"/>
      <point x="516" y="288"/>
      <point x="462" y="319"/>
      <point x="462" y="383" type="curve" smooth="yes"/>
      <point x="462" y="387" type="line" smooth="yes"/>
      <point x="462" y="448"/>
      <point x="509" y="476"/>
      <point x="625" y="478" type="curve" smooth="yes"/>
      <point x="765" y="481" type="line"/>
      <point x="765" y="744" type="line"/>
      <point x="625" y="747" type="line" smooth="yes"/>
      <point x="516" y="749"/>
      <point x="471" y="772"/>
      <point x="471" y="824" type="curve" smooth="yes"/>
      <point x="471" y="828" type="line" smooth="yes"/>
      <point x="471" y="883"/>
      <point x="521" y="906"/>
      <point x="619" y="906" type="curve" smooth="yes"/>
      <point x="725" y="906"/>
      <point x="814" y="894"/>
      <point x="892" y="870" type="curve"/>
      <point x="853" y="1175" type="line"/>
      <point x="761" y="1199"/>
      <point x="664" y="1213"/>
    </contour>
  </outline>
</glyph>
<glyph name="TthamatraUu.kn" format="2">
  <advance width="3452"/>
  <outline>
    <component base="Ttha.kn"/>
    <component base="matraUu.kn" xOffset="1733"/>
    <contour>
      <point x="1500" y="426" type="line"/>
      <point x="1622" y="427" type="line"/>
      <point x="1622" y="474" type="line"/>
      <point x="1500" y="474" type="line"/>
    </contour>
  </outline>
</glyph>
<glyph name="Vasmall1.kn" format="2">
  <outline>
    <contour>
      <point x="90" y="-312" type="curve"/>
      <point x="-83" y="-319" type="line"/>
      <point x="42" y="-319"/>
      <point x="102" y="-368"/>
      <point x="102" y="-471" type="curve" smooth="yes"/>
      <point x="102" y="-477" type="line" smooth="yes"/>
      <point x="102" y="-542"/>
      <point x="72" y="-577"/>
      <point x="13" y="-577" type="curve" smooth="yes"/>
      <point x="-49" y="-577"/>
      <point x="-74" y="-546"/>
      <point x="-82" y="-490" type="curve" smooth="yes"/>
      <point x="-85" y="-470" type="line"/>
      <point x="-231" y="-470" type="line"/>
      <point x="-209" y="-644" type="line"/>
      <point x="-182" y="-746"/>
      <point x="-101" y="-797"/>
      <point x="58" y="-797" type="curve" smooth="yes"/>
      <point x="260" y="-797"/>
      <point x="364" y="-708"/>
      <point x="364" y="-539" type="curve" smooth="yes"/>
      <point x="364" y="-531" type="line" smooth="yes"/>
      <point x="364" y="-389"/>
      <point x="270" y="-312"/>
    </contour>
    <contour>
      <point x="205" y="-336" type="line"/>
      <point x="205" y="-319" type="line"/>
      <point x="388" y="-319" type="line"/>
      <point x="388" y="-112" type="line"/>
      <point x="-326" y="-112" type="line"/>
      <point x="-326" y="-319" type="line"/>
      <point x="17" y="-319" type="line"/>
    </contour>
    <contour>
      <point x="-463" y="-577" type="curve" smooth="yes"/>
      <point x="-525" y="-577"/>
      <point x="-552" y="-559"/>
      <point x="-552" y="-522" type="curve"/>
      <point x="-552" y="-521" type="line"/>
      <point x="-552" y="-489"/>
      <point x="-530" y="-471"/>
      <point x="-489" y="-471" type="curve" smooth="yes"/>
      <point x="-462" y="-471"/>
      <point x="-428" y="-476"/>
      <point x="-398" y="-489" type="curve"/>
      <point x="-412" y="-282" type="line"/>
      <point x="-451" y="-268"/>
      <point x="-495" y="-260"/>
      <point x="-546" y="-260" type="curve" smooth="yes"/>
      <point x="-715" y="-260"/>
      <point x="-811" y="-359"/>
      <point x="-811" y="-526" type="curve" smooth="yes"/>
      <point x="-811" y="-530" type="line" smooth="yes"/>
      <point x="-811" y="-704"/>
      <point x="-700" y="-797"/>
      <point x="-488" y="-797" type="curve" smooth="yes"/>
      <point x="-326" y="-797"/>
      <point x="-235" y="-741"/>
      <point x="-215" y="-644" type="curve"/>
      <point x="-153" y="-644" type="line"/>
      <point x="-191" y="-470" type="line"/>
      <point x="-338" y="-470" type="line"/>
      <point x="-341" y="-490" type="line" smooth="yes"/>
      <point x="-349" y="-543"/>
      <point x="-386" y="-577"/>
    </contour>
  </outline>
</glyph>
<glyph name="YamatraI.kn" format="2">
  <advance width="3393"/>
  <outline>
    <component base="matraU.kn" xOffset="2521"/>
    <contour>
      <point x="1540" y="610" type="line" smooth="yes"/>
      <point x="1540" y="1020"/>
      <point x="1282" y="1237"/>
      <point x="815" y="1237" type="curve" smooth="yes"/>
      <point x="348" y="1237"/>
      <point x="90" y="1020"/>
      <point x="90" y="610" type="curve" smooth="yes"/>
      <point x="90" y="588" type="line" smooth="yes"/>
      <point x="90" y="178"/>
      <point x="348" y="-39"/>
      <point x="815" y="-39" type="curve" smooth="yes"/>
      <point x="1282" y="-39"/>
      <point x="1540" y="178"/>
      <point x="1540" y="588" type="curve" smooth="yes"/>
    </contour>
    <contour>
      <point x="815" y="291" type="curve" smooth="yes"/>
      <point x="596" y="291"/>
      <point x="480" y="398"/>
      <point x="480" y="596" type="curve" smooth="yes"/>
      <point x="480" y="602" type="line" smooth="yes"/>
      <point x="480" y="800"/>
      <point x="596" y="907"/>
      <point x="815" y="907" type="curve" smooth="yes"/>
      <point x="1034" y="907"/>
      <point x="1150" y="800"/>
      <point x="1150" y="602" type="curve" smooth="yes"/>
      <point x="1150" y="596" type="line" smooth="yes"/>
      <point x="1150" y="398"/>
      <point x="1034" y="291"/>
    </contour>
    <contour>
      <point x="2044" y="699" type="line" smooth="yes"/>
      <point x="2044" y="435"/>
      <point x="1946" y="298"/>
      <point x="1764" y="298" type="curve" smooth="yes"/>
      <point x="1617" y="298"/>
      <point x="1531" y="377"/>
      <point x="1531" y="503" type="curve"/>
      <point x="1531" y="504" type="line"/>
      <point x="1409" y="492" type="line"/>
      <point x="1409" y="361" type="line" smooth="yes"/>
      <point x="1409" y="111"/>
      <point x="1574" y="-37"/>
      <point x="1854" y="-37" type="curve" smooth="yes"/>
      <point x="2239" y="-37"/>
      <point x="2434" y="216"/>
      <point x="2434" y="708" type="curve" smooth="yes"/>
      <point x="2434" y="715" type="line" smooth="yes"/>
      <point x="2434" y="785.326"/>
      <point x="2429.28" y="853.837"/>
      <point x="2418.81" y="918.815" type="curve" smooth="yes"/>
      <point x="2372.41" y="1206.55"/>
      <point x="2213.05" y="1425"/>
      <point x="1850" y="1425" type="curve" smooth="yes"/>
      <point x="1554" y="1425"/>
      <point x="1398" y="1295"/>
      <point x="1398" y="1056" type="curve"/>
      <point x="1398" y="1054" type="line"/>
      <point x="1398" y="843"/>
      <point x="1531" y="721"/>
      <point x="1751" y="721" type="curve" smooth="yes"/>
      <point x="1905.12" y="721"/>
      <point x="1996.79" y="776.402"/>
      <point x="2026" y="875" type="curve"/>
      <point x="2049" y="875" type="line"/>
      <point x="2000" y="1048" type="line"/>
      <point x="1962" y="997"/>
      <point x="1908" y="972"/>
      <point x="1850" y="972" type="curve" smooth="yes"/>
      <point x="1775" y="972"/>
      <point x="1737" y="998"/>
      <point x="1737" y="1048" type="curve"/>
      <point x="1737" y="1050" type="line"/>
      <point x="1737" y="1106"/>
      <point x="1778" y="1135"/>
      <point x="1848" y="1135" type="curve" smooth="yes"/>
      <point x="1938" y="1135"/>
      <point x="1986" y="1077"/>
      <point x="2012" y="966" type="curve"/>
      <point x="2013" y="961"/>
      <point x="2013" y="956"/>
      <point x="2015" y="950" type="curve" smooth="yes"/>
      <point x="2018" y="941"/>
      <point x="2021" y="930"/>
      <point x="2024" y="921" type="curve"/>
      <point x="2024.62" y="919.415"/>
      <point x="2030.38" y="904.585"/>
      <point x="2031" y="903" type="curve"/>
      <point x="2035" y="881" type="line"/>
      <point x="2041.55" y="832.111"/>
      <point x="2044" y="771.815"/>
      <point x="2044" y="705" type="curve" smooth="yes"/>
    </contour>
  </outline>
  <guideline angle="90" x="1891" y="0"/>
  <guideline angle="90" x="2817" y="0"/>
</glyph>
<glyph name="zero.tf.zero" format="2">
  <advance width="1520"/>
  <outline>
    <component base="zero" xOffset="-36"/>
    <contour>
      <point x="376" y="268" type="line"/>
      <point x="1212" y="796" type="line"/>
      <point x="1106" y="985" type="line"/>
      <point x="266" y="459" type="line"/>
    </contour>
  </outline>
</glyph>
